<?xml version="1.0" encoding="UTF-8" standalone="no"?>
<svg
   xmlns:dc="http://purl.org/dc/elements/1.1/"
   xmlns:cc="http://creativecommons.org/ns#"
   xmlns:rdf="http://www.w3.org/1999/02/22-rdf-syntax-ns#"
   xmlns:svg="http://www.w3.org/2000/svg"
   xmlns="http://www.w3.org/2000/svg"
   xmlns:sodipodi="http://sodipodi.sourceforge.net/DTD/sodipodi-0.dtd"
   xmlns:inkscape="http://www.inkscape.org/namespaces/inkscape"
   version="1.1"
   width="612"
   height="654.73297"
   id="svg92"
   sodipodi:docname="tequiavalley-bordered_logo.svg"
   inkscape:version="0.92.2pre0 (973e216, 2017-07-25)"
   inkscape:export-filename="/home/augusto/Documents/tequila valley/tqv/tequilavalley-chetumal-bordered_shield.png"
   inkscape:export-xdpi="113.73183"
   inkscape:export-ydpi="113.73183">
  <metadata
     id="metadata98">
    <rdf:RDF>
      <cc:Work
         rdf:about="">
        <dc:format>image/svg+xml</dc:format>
        <dc:type
           rdf:resource="http://purl.org/dc/dcmitype/StillImage" />
        <dc:title></dc:title>
      </cc:Work>
    </rdf:RDF>
  </metadata>
  <defs
     id="defs96">
    <inkscape:path-effect
       effect="perspective-envelope"
       up_left_point="20,164.7082"
       up_right_point="492.46522,164.7082"
       down_left_point="20,670.27"
       down_right_point="492.46522,670.26678"
       id="path-effect2441"
       is_visible="true"
       deform_type="envelope_deformation"
       horizontal_mirror="false"
       vertical_mirror="false"
       overflow_perspective="false" />
    <inkscape:path-effect
       effect="bend_path"
       id="path-effect2235"
       is_visible="true"
       bendpath="M 20,417.48749 H 492.46522"
       prop_scale="1"
       scale_y_rel="true"
       vertical="false" />
    <inkscape:path-effect
       effect="perspective-envelope"
       up_left_point="20,164.7082"
       up_right_point="492.46522,164.7082"
       down_left_point="20,670.26678"
       down_right_point="492.46522,670.26678"
       id="path-effect2197"
       is_visible="true"
       deform_type="perspective"
       horizontal_mirror="false"
       vertical_mirror="false"
       overflow_perspective="false" />
    <marker
       inkscape:stockid="Arrow1Lstart"
       orient="auto"
       refY="0"
       refX="0"
       id="marker2105"
       style="overflow:visible"
       inkscape:isstock="true">
      <path
         id="path2103"
         d="M 0,0 5,-5 -12.5,0 5,5 Z"
         style="fill:#fffdff;fill-opacity:1;fill-rule:evenodd;stroke:#000000;stroke-width:1.00000003pt;stroke-opacity:1"
         transform="matrix(0.8,0,0,0.8,10,0)"
         inkscape:connector-curvature="0" />
    </marker>
    <marker
       inkscape:stockid="Arrow1Lstart"
       orient="auto"
       refY="0"
       refX="0"
       id="marker2023"
       style="overflow:visible"
       inkscape:isstock="true">
      <path
         id="path2021"
         d="M 0,0 5,-5 -12.5,0 5,5 Z"
         style="fill:#fffdff;fill-opacity:1;fill-rule:evenodd;stroke:#000000;stroke-width:1.00000003pt;stroke-opacity:1"
         transform="matrix(0.8,0,0,0.8,10,0)"
         inkscape:connector-curvature="0" />
    </marker>
    <marker
       inkscape:stockid="Arrow1Lstart"
       orient="auto"
       refY="0"
       refX="0"
       id="marker1947"
       style="overflow:visible"
       inkscape:isstock="true">
      <path
         id="path1945"
         d="M 0,0 5,-5 -12.5,0 5,5 Z"
         style="fill:#fffdff;fill-opacity:1;fill-rule:evenodd;stroke:#000000;stroke-width:1.00000003pt;stroke-opacity:1"
         transform="matrix(0.8,0,0,0.8,10,0)"
         inkscape:connector-curvature="0" />
    </marker>
    <marker
       inkscape:stockid="Arrow1Lstart"
       orient="auto"
       refY="0"
       refX="0"
       id="marker1877"
       style="overflow:visible"
       inkscape:isstock="true">
      <path
         id="path1875"
         d="M 0,0 5,-5 -12.5,0 5,5 Z"
         style="fill:#fffdff;fill-opacity:1;fill-rule:evenodd;stroke:#000000;stroke-width:1.00000003pt;stroke-opacity:1"
         transform="matrix(0.8,0,0,0.8,10,0)"
         inkscape:connector-curvature="0" />
    </marker>
    <marker
       inkscape:stockid="Arrow1Lstart"
       orient="auto"
       refY="0"
       refX="0"
       id="marker1813"
       style="overflow:visible"
       inkscape:isstock="true">
      <path
         id="path1811"
         d="M 0,0 5,-5 -12.5,0 5,5 Z"
         style="fill:#fffdff;fill-opacity:1;fill-rule:evenodd;stroke:#000000;stroke-width:1.00000003pt;stroke-opacity:1"
         transform="matrix(0.8,0,0,0.8,10,0)"
         inkscape:connector-curvature="0" />
    </marker>
    <marker
       inkscape:stockid="Arrow1Lstart"
       orient="auto"
       refY="0"
       refX="0"
       id="marker1755"
       style="overflow:visible"
       inkscape:isstock="true">
      <path
         id="path1753"
         d="M 0,0 5,-5 -12.5,0 5,5 Z"
         style="fill:#fffdff;fill-opacity:1;fill-rule:evenodd;stroke:#000000;stroke-width:1.00000003pt;stroke-opacity:1"
         transform="matrix(0.8,0,0,0.8,10,0)"
         inkscape:connector-curvature="0" />
    </marker>
    <marker
       inkscape:stockid="Arrow1Lstart"
       orient="auto"
       refY="0"
       refX="0"
       id="marker1703"
       style="overflow:visible"
       inkscape:isstock="true">
      <path
         id="path1701"
         d="M 0,0 5,-5 -12.5,0 5,5 Z"
         style="fill:#fffdff;fill-opacity:1;fill-rule:evenodd;stroke:#000000;stroke-width:1.00000003pt;stroke-opacity:1"
         transform="matrix(0.8,0,0,0.8,10,0)"
         inkscape:connector-curvature="0" />
    </marker>
    <marker
       inkscape:stockid="Arrow1Lstart"
       orient="auto"
       refY="0"
       refX="0"
       id="marker1657"
       style="overflow:visible"
       inkscape:isstock="true">
      <path
         id="path1655"
         d="M 0,0 5,-5 -12.5,0 5,5 Z"
         style="fill:#fffdff;fill-opacity:1;fill-rule:evenodd;stroke:#000000;stroke-width:1.00000003pt;stroke-opacity:1"
         transform="matrix(0.8,0,0,0.8,10,0)"
         inkscape:connector-curvature="0" />
    </marker>
    <marker
       inkscape:stockid="Arrow1Lstart"
       orient="auto"
       refY="0"
       refX="0"
       id="marker1617"
       style="overflow:visible"
       inkscape:isstock="true">
      <path
         id="path1615"
         d="M 0,0 5,-5 -12.5,0 5,5 Z"
         style="fill:#fffdff;fill-opacity:1;fill-rule:evenodd;stroke:#000000;stroke-width:1.00000003pt;stroke-opacity:1"
         transform="matrix(0.8,0,0,0.8,10,0)"
         inkscape:connector-curvature="0" />
    </marker>
    <marker
       inkscape:stockid="Arrow1Lstart"
       orient="auto"
       refY="0"
       refX="0"
       id="marker1583"
       style="overflow:visible"
       inkscape:isstock="true">
      <path
         id="path1581"
         d="M 0,0 5,-5 -12.5,0 5,5 Z"
         style="fill:#fffdff;fill-opacity:1;fill-rule:evenodd;stroke:#000000;stroke-width:1.00000003pt;stroke-opacity:1"
         transform="matrix(0.8,0,0,0.8,10,0)"
         inkscape:connector-curvature="0" />
    </marker>
    <marker
       inkscape:stockid="Arrow1Lstart"
       orient="auto"
       refY="0"
       refX="0"
       id="marker1555"
       style="overflow:visible"
       inkscape:isstock="true">
      <path
         id="path1553"
         d="M 0,0 5,-5 -12.5,0 5,5 Z"
         style="fill:#fffdff;fill-opacity:1;fill-rule:evenodd;stroke:#000000;stroke-width:1.00000003pt;stroke-opacity:1"
         transform="matrix(0.8,0,0,0.8,10,0)"
         inkscape:connector-curvature="0" />
    </marker>
    <marker
       inkscape:stockid="Arrow1Lend"
       orient="auto"
       refY="0"
       refX="0"
       id="Arrow1Lend"
       style="overflow:visible"
       inkscape:isstock="true">
      <path
         id="path1044"
         d="M 0,0 5,-5 -12.5,0 5,5 Z"
         style="fill:#fffdff;fill-opacity:1;fill-rule:evenodd;stroke:#000000;stroke-width:1.00000003pt;stroke-opacity:1"
         transform="matrix(-0.8,0,0,-0.8,-10,0)"
         inkscape:connector-curvature="0" />
    </marker>
    <marker
       inkscape:stockid="Arrow1Lstart"
       orient="auto"
       refY="0"
       refX="0"
       id="Arrow1Lstart"
       style="overflow:visible"
       inkscape:isstock="true">
      <path
         id="path1041"
         d="M 0,0 5,-5 -12.5,0 5,5 Z"
         style="fill:#fffdff;fill-opacity:1;fill-rule:evenodd;stroke:#000000;stroke-width:1.00000003pt;stroke-opacity:1"
         transform="matrix(0.8,0,0,0.8,10,0)"
         inkscape:connector-curvature="0" />
    </marker>
  </defs>
  <sodipodi:namedview
     pagecolor="#ffffff"
     bordercolor="#666666"
     borderopacity="1"
     objecttolerance="10"
     gridtolerance="10"
     guidetolerance="10"
     inkscape:pageopacity="0"
     inkscape:pageshadow="2"
     inkscape:window-width="1871"
     inkscape:window-height="1052"
     id="namedview94"
     showgrid="false"
     inkscape:zoom="1"
     inkscape:cx="200.91403"
     inkscape:cy="314.63344"
     inkscape:window-x="49"
     inkscape:window-y="0"
     inkscape:window-maximized="1"
     inkscape:current-layer="g1023"
     inkscape:pagecheckerboard="true" />
  <g
     inkscape:groupmode="layer"
     id="layer4"
     inkscape:label="base blanca"
     style="display:inline"
     sodipodi:insensitive="true"
     transform="translate(0,-137.267)">
    <path
       inkscape:transform-center-x="-0.33939419"
       inkscape:transform-center-y="16.479724"
       d="M 611.45939,198.84675 305.97969,137.76698 0.49999554,198.84675 42.51814,601.622 305.97969,791.49999 569.44123,601.622 Z"
       id="path39704-3"
       inkscape:connector-curvature="0"
       sodipodi:nodetypes="ccccccc"
       style="display:inline;fill:#fffdff;fill-opacity:1;stroke:#000000;stroke-width:0.99999982;stroke-linecap:round;stroke-linejoin:round;stroke-miterlimit:4;stroke-dasharray:none;stroke-dashoffset:0;stroke-opacity:1;paint-order:normal" />
  </g>
  <g
     inkscape:groupmode="layer"
     id="layer3"
     inkscape:label="base"
     style="display:inline"
     sodipodi:insensitive="true"
     transform="translate(0,-137.267)">
    <path
       inkscape:transform-center-x="-0.3190183"
       inkscape:transform-center-y="15.490067"
       d="M 593.11425,214.58665 305.97971,157.17494 18.845147,214.58665 58.339951,593.17381 305.97971,771.64896 553.61944,593.17381 Z"
       id="path39704"
       inkscape:connector-curvature="0"
       sodipodi:nodetypes="ccccccc"
       style="fill:#005b9f;fill-opacity:0.91372549;stroke-width:0.99999982" />
  </g>
  <g
     inkscape:groupmode="layer"
     id="layer2"
     inkscape:label="logo"
     style="display:inline"
     transform="translate(0,-137.267)" />
  <g
     inkscape:groupmode="layer"
     id="layer1"
     inkscape:label="chetumal"
     style="display:inline"
     transform="translate(0,-137.267)">
    <g
       id="g1023"
       transform="matrix(1.2931311,0,0,1.2930905,-5.209339,-75.215631)"
       style="stroke-width:0.7733289">
      <g
         id="g927"
         style="display:inline;stroke-width:0.7733289">
        <path
           d="m 280.6415,337.9399 c -0.4771,-0.4779 -1.1409,-0.7789 -1.8751,-0.7789 -0.7299,0 -1.3961,0.301 -1.872,0.7792 -0.4799,0.4779 -0.7758,1.141 -0.7758,1.8749 0,0.7279 0.2959,1.392 0.7758,1.8739 0.4762,0.4791 1.1421,0.7742 1.872,0.7742 0.7342,-3e-4 1.398,-0.2951 1.8751,-0.7742 0.4771,-0.4819 0.7759,-1.146 0.7759,-1.8739 2e-4,-0.7342 -0.2988,-1.397 -0.7759,-1.8749 z m -1.8751,-4.2638 c 1.6931,0 3.2301,0.6879 4.339,1.8 1.112,1.108 1.796,2.6399 1.796,4.339 0,1.6888 -0.684,3.2241 -1.796,4.3319 -0.9629,0.9652 -2.2451,1.6061 -3.676,1.764 l -3.3279,13.9529 c -0.259,1.1092 -1.3699,1.7921 -2.4811,1.5333 -1.1038,-0.2642 -1.787,-1.372 -1.5208,-2.48 l 3.3279,-13.9612 c -0.3629,-0.2359 -0.6931,-0.508 -0.997,-0.809 -1.11,-1.1081 -1.7971,-2.6428 -1.7971,-4.3319 2e-4,-1.6991 0.6871,-3.231 1.7971,-4.339 1.1109,-1.1121 2.645,-1.8 4.3359,-1.8 z"
           style="fill:#68b32a;fill-rule:evenodd;stroke-width:0.7733289"
           id="path4"
           inkscape:connector-curvature="0" />
        <path
           d="m 300.6856,311.0009 c -0.4791,-0.4779 -1.1421,-0.7787 -1.8751,-0.7787 -0.7339,-3e-4 -1.3981,0.3008 -1.8752,0.779 -0.4827,0.4779 -0.7778,1.1398 -0.7778,1.8739 0,0.73 0.2951,1.393 0.7778,1.874 0.4771,0.478 1.1413,0.7759 1.8752,0.7759 0.733,0 1.396,-0.2979 1.8751,-0.7759 0.4759,-0.481 0.777,-1.144 0.777,-1.874 0,-0.7341 -0.3011,-1.396 -0.777,-1.8739 z m 1.8229,-2.8511 c 0.2141,0.1653 0.417,0.3421 0.6061,0.5312 1.1092,1.1081 1.796,2.645 1.796,4.3381 0,1.6929 -0.6871,3.2259 -1.796,4.339 -1.1069,1.1078 -2.6462,1.7961 -4.337,1.7961 -1.694,-3e-4 -3.2261,-0.688 -4.3382,-1.7961 -1.11,-1.1131 -1.7968,-2.6461 -1.7968,-4.339 0,-1.6931 0.6868,-3.23 1.7968,-4.3381 1.0752,-1.0701 2.5421,-1.751 4.165,-1.796 l 4.515,-13.932 -15.8238,21.4872 c -0.6721,0.9147 -1.9571,1.1128 -2.8732,0.4419 -0.9128,-0.6721 -1.1149,-1.9619 -0.4439,-2.8761 l 23.3421,-31.6919 c 0.669,-0.911 1.9579,-1.1131 2.8718,-0.4422 0.7583,0.5573 1.025,1.5333 0.7121,2.3743 z"
           style="fill:#68b32a;fill-rule:evenodd;stroke-width:0.7733289"
           id="path6"
           inkscape:connector-curvature="0" />
        <path
           d="m 292.0785,325.0701 c -0.478,-0.4779 -1.137,-0.779 -1.8709,-0.779 -0.7342,0 -1.3952,0.3011 -1.8751,0.779 -0.4819,0.477 -0.7762,1.1409 -0.7762,1.87 3e-4,0.733 0.2943,1.3969 0.7762,1.8791 0.4802,0.4768 1.1409,0.7738 1.8751,0.7738 0.7339,0 1.3929,-0.297 1.8709,-0.7738 0.481,-0.4822 0.7789,-1.1461 0.7789,-1.8791 0,-0.7291 -0.2979,-1.393 -0.7789,-1.87 z m -1.8709,-4.2602 c 1.69,0 3.2258,0.6831 4.3327,1.7963 1.1143,1.112 1.7972,2.645 1.7972,4.3339 0,1.6968 -0.6831,3.2301 -1.7972,4.3379 -1.1069,1.112 -2.6427,1.8 -4.3327,1.8 -1.6971,0 -3.2292,-0.688 -4.3413,-1.8 -1.1038,-1.1081 -1.7969,-2.6408 -1.7969,-4.3379 0,-0.436 0.0491,-0.8691 0.135,-1.281 l -3.9748,-2.4511 -13.562,18.3719 v 30.4702 c 0,1.1389 -0.9241,2.0599 -2.0642,2.0599 -1.1319,0 -2.0588,-0.921 -2.0588,-2.0599 v -31.1372 c 0,-0.5148 0.1939,-0.9879 0.5048,-1.3507 l 15.0001,-20.3173 c 0.6559,-0.887 1.8919,-1.0919 2.7981,-0.4828 l 5.512,3.3979 c 1.055,-0.843 2.3887,-1.3498 3.848,-1.3498 z"
           style="fill:#68b32a;fill-rule:evenodd;stroke-width:0.7733289"
           id="path8"
           inkscape:connector-curvature="0" />
        <path
           d="m 322.6416,406.6231 c -0.4771,-0.4782 -1.1412,-0.7789 -1.872,-0.7789 -0.735,0 -1.3992,0.301 -1.872,0.7789 -0.485,0.4819 -0.7792,1.1461 -0.7792,1.8751 2e-4,0.7308 0.2942,1.395 0.7792,1.8729 0.4731,0.4799 1.137,0.777 1.872,0.777 0.7311,0 1.3949,-0.2971 1.872,-0.777 0.4822,-0.4779 0.779,-1.1421 0.779,-1.8729 0,-0.7293 -0.2971,-1.3932 -0.779,-1.8751 z m 25.522,-27.9229 c -0.4782,-0.4791 -1.1361,-0.7801 -1.87,-0.7801 -0.733,0 -1.3972,0.301 -1.8751,0.7801 -0.4819,0.4818 -0.7781,1.146 -0.7781,1.8739 3e-4,0.7328 0.2962,1.3961 0.7781,1.8749 0.4782,0.4779 1.1421,0.7741 1.8751,0.7741 0.7342,0 1.3918,-0.2959 1.8697,-0.7741 0.4833,-0.4791 0.7793,-1.1418 0.7793,-1.8749 0,-0.7282 -0.2962,-1.3921 -0.7793,-1.8739 z m -1.87,-4.2602 c 1.6929,0 3.2298,0.6891 4.3379,1.796 1.108,1.1109 1.796,2.645 1.796,4.3381 3e-4,1.694 -0.688,3.2259 -1.796,4.339 -1.1081,1.1078 -2.645,1.7969 -4.3379,1.7969 -1.5009,0 -2.8672,-0.5408 -3.935,-1.4309 l -1.2232,0.72 -12.6048,7.433 -4.6148,9.7999 c 0.432,0.2591 0.8317,0.574 1.1857,0.9301 1.1132,1.11 1.8009,2.6419 1.8009,4.3361 2e-4,1.6929 -0.688,3.2298 -1.8009,4.3368 -1.1041,1.1092 -2.6422,1.798 -4.3319,1.798 -1.6991,0 -3.2321,-0.6888 -4.3393,-1.798 -1.1097,-1.107 -1.7969,-2.6439 -1.7969,-4.3368 0,-1.6942 0.6872,-3.2261 1.7969,-4.3361 0.8813,-0.8839 2.0262,-1.5001 3.3061,-1.713 l 5.345,-11.3411 c 0.1851,-0.387 0.47,-0.6928 0.8101,-0.8918 v -3e-4 l 14.3791,-8.481 c -0.074,-0.3739 -0.1112,-0.7659 -0.1112,-1.1608 0,-1.6931 0.688,-3.2269 1.7949,-4.3381 1.1104,-1.1069 2.6462,-1.796 4.3393,-1.796 z"
           style="fill:#68b32a;fill-rule:evenodd;stroke-width:0.7733289"
           id="path10"
           inkscape:connector-curvature="0" />
        <path
           d="m 308.2827,404.1471 c -0.4802,-0.474 -1.1432,-0.7731 -1.8751,-0.7731 -0.7299,0 -1.3932,0.2991 -1.872,0.7731 -0.4822,0.483 -0.7781,1.144 -0.7781,1.8751 3e-4,0.7327 0.2959,1.3969 0.7781,1.8768 0.479,0.4779 1.1418,0.777 1.872,0.777 0.7322,0 1.3949,-0.2988 1.8748,-0.777 0.4819,-0.4799 0.7762,-1.1438 0.7762,-1.8768 0,-0.7311 -0.2943,-1.3921 -0.7762,-1.8751 z m 57.3809,-38.4081 c -0.4779,-0.477 -1.1401,-0.777 -1.8712,-0.777 -0.731,0 -1.398,0.3 -1.8779,0.777 -0.4759,0.4771 -0.773,1.141 -0.773,1.8751 3e-4,0.7339 0.2971,1.3981 0.773,1.8749 0.4802,0.4759 1.1469,0.773 1.8779,0.773 0.7314,0 1.393,-0.2968 1.8712,-0.773 0.483,-0.4771 0.7798,-1.141 0.7798,-1.8749 0,-0.7341 -0.2968,-1.398 -0.7798,-1.8751 z m -1.8709,-4.259 c 1.6909,0 3.2267,0.6882 4.3348,1.796 1.1123,1.1089 1.8011,2.641 1.8011,4.3381 0,1.6929 -0.6891,3.225 -1.8011,4.3379 -1.1081,1.1081 -2.6439,1.7912 -4.3351,1.7912 -1.6959,-3e-4 -3.2269,-0.6831 -4.3358,-1.7912 -0.6341,-0.6341 -1.133,-1.41 -1.4432,-2.27 l -16.408,2.7561 -22.176,14.9619 -8.5088,14.4731 c 1.0072,1.0919 1.6197,2.552 1.6197,4.1491 3e-4,1.6908 -0.6879,3.2258 -1.7949,4.3358 -1.1089,1.1129 -2.641,1.7981 -4.3378,1.7981 -1.694,0 -3.2273,-0.6849 -4.335,-1.7981 -1.1109,-1.11 -1.8,-2.645 -1.8,-4.3358 0,-1.6932 0.6888,-3.2261 1.8,-4.3351 1.108,-1.1131 2.641,-1.8 4.335,-1.8 0.2951,0 0.5919,0.0239 0.8767,0.0661 l 8.7543,-14.9332 c 0.1601,-0.309 0.3948,-0.5658 0.667,-0.7469 v 0 l 23.112,-15.588 c 0.3951,-0.2682 0.8569,-0.3841 1.3008,-0.3461 l 16.8874,-2.765 c 0.3098,-0.8739 0.8076,-1.6568 1.4508,-2.298 1.1092,-1.1081 2.6399,-1.796 4.3358,-1.796 z"
           style="fill:#68b32a;fill-rule:evenodd;stroke-width:0.7733289"
           id="path12"
           inkscape:connector-curvature="0" />
        <path
           d="m 287.7525,408.659 c -0.4779,-0.4791 -1.1421,-0.775 -1.874,-0.775 -0.7339,0 -1.3969,0.2962 -1.874,0.775 -0.479,0.4759 -0.7741,1.1401 -0.7741,1.8731 0,0.7319 0.2951,1.3961 0.7741,1.8751 0.4771,0.4779 1.1398,0.7739 1.874,0.7739 0.7319,0 1.3961,-0.296 1.874,-0.7739 0.4791,-0.479 0.775,-1.1432 0.775,-1.8751 0,-0.733 -0.2959,-1.3969 -0.775,-1.8731 z m 90.0822,-70.295 c -0.479,-0.474 -1.1361,-0.7739 -1.8711,-0.7739 -0.7319,0 -1.3953,0.2999 -1.8752,0.7739 -0.4818,0.4819 -0.7769,1.1452 -0.7769,1.8751 2e-4,0.7319 0.2951,1.3949 0.7769,1.8771 0.4802,0.4788 1.143,0.777 1.8752,0.777 0.735,-3e-4 1.3918,-0.2982 1.8708,-0.777 0.483,-0.4822 0.7781,-1.1452 0.7781,-1.8771 0,-0.7302 -0.2951,-1.3929 -0.7781,-1.8751 z m -1.8711,-4.2599 c 1.69,0 3.2249,0.688 4.335,1.796 1.1112,1.1121 1.7937,2.645 1.7937,4.339 3e-4,1.6929 -0.6828,3.225 -1.7937,4.3379 -1.1101,1.1069 -2.645,1.796 -4.335,1.796 -1.2719,0 -2.4551,-0.3838 -3.4351,-1.0468 -3.0078,2.2169 -6.0242,4.4189 -9.0391,6.6328 -2.6118,1.9201 -5.2228,3.8511 -7.8199,5.792 -0.1809,0.1361 -0.3991,0.2432 -0.635,0.309 l -21.1487,6.1001 -24.0891,18.652 -7.0563,15.169 c -0.112,0.2778 -0.2888,0.538 -0.5329,0.7521 l -10.6481,9.4889 c 0.2963,0.7118 0.453,1.4959 0.453,2.31 0,1.6889 -0.6868,3.2261 -1.7969,4.335 -1.112,1.1058 -2.643,1.8 -4.337,1.8 -1.6928,0 -3.2261,-0.6939 -4.3381,-1.8 -1.1081,-1.1092 -1.7969,-2.6461 -1.7969,-4.335 0,-1.6909 0.6888,-3.2309 1.7969,-4.337 1.112,-1.1081 2.645,-1.8 4.3381,-1.8 1.067,0 2.073,0.2761 2.9449,0.752 l 10.334,-9.2061 7.1172,-15.3051 c 0.1619,-0.341 0.3949,-0.6219 0.6829,-0.8189 l 24.7161,-19.1409 c 0.2458,-0.1891 0.5188,-0.3121 0.8028,-0.379 l 21.0592,-6.073 8.8982,-6.561 7.6558,-5.6481 c -0.1709,-0.5621 -0.2622,-1.1579 -0.2622,-1.7759 0,-1.694 0.69,-3.2269 1.794,-4.339 1.1112,-1.108 2.649,-1.796 4.3422,-1.796 z"
           style="fill:#68b32a;fill-rule:evenodd;stroke-width:0.7733289"
           id="path14"
           inkscape:connector-curvature="0" />
        <path
           d="m 352.4156,314.3041 c -0.4791,-0.4771 -1.1461,-0.777 -1.8791,-0.777 -0.7279,-3e-4 -1.3921,0.2999 -1.87,0.777 -0.4819,0.4788 -0.775,1.146 -0.775,1.8751 3e-4,0.7328 0.2931,1.3969 0.775,1.874 0.4782,0.4776 1.1421,0.7758 1.87,0.7758 0.733,0 1.4,-0.2979 1.8788,-0.7758 0.4785,-0.4771 0.7741,-1.1412 0.7741,-1.874 0,-0.7291 -0.2959,-1.3961 -0.7741,-1.8751 z m -1.8791,-4.2591 c 1.698,0 3.2301,0.688 4.343,1.7972 1.1083,1.1118 1.796,2.6439 1.796,4.337 3e-4,1.6926 -0.688,3.2258 -1.796,4.3379 -1.1129,1.108 -2.645,1.7969 -4.343,1.7969 -0.5099,0 -1.0052,-0.063 -1.4831,-0.1809 l -7.094,10.698 -0.005,-0.004 c -0.14,0.21 -0.3172,0.396 -0.5391,0.5479 l -17.7548,12.4041 c -0.9321,0.652 -2.2094,0.4241 -2.8593,-0.5059 -0.6509,-0.9272 -0.421,-2.2082 0.5059,-2.8551 l 17.4314,-12.1782 6.8907,-10.381 c -0.7698,-1.0267 -1.2228,-2.3038 -1.2228,-3.6797 0,-1.6934 0.684,-3.225 1.796,-4.337 1.1132,-1.1092 2.6447,-1.7972 4.3339,-1.7972 z"
           style="fill:#68b32a;fill-rule:evenodd;stroke-width:0.7733289"
           id="path16"
           inkscape:connector-curvature="0" />
        <path
           d="m 280.0647,394.8111 c -0.4771,-0.4801 -1.1373,-0.7769 -1.8684,-0.7769 -0.7358,-3e-4 -1.3997,0.2968 -1.8748,0.7769 -0.483,0.4788 -0.7801,1.1421 -0.7801,1.8709 0,0.735 0.2971,1.3972 0.7801,1.878 0.4751,0.4802 1.139,0.7741 1.8748,0.7741 0.7311,0 1.3913,-0.2939 1.8681,-0.7741 0.4822,-0.4811 0.7789,-1.143 0.7789,-1.878 3e-4,-0.7288 -0.2967,-1.3918 -0.7789,-1.8709 z m 72.5728,-103.922 c -0.4779,-0.4782 -1.1361,-0.775 -1.87,-0.775 -0.733,-3e-4 -1.3969,0.297 -1.874,0.775 -0.483,0.4819 -0.7781,1.144 -0.7781,1.874 0,0.7341 0.2951,1.396 0.7781,1.8751 0.4771,0.4768 1.141,0.7738 1.874,0.7738 0.7339,-3e-4 1.3918,-0.297 1.87,-0.7738 0.4819,-0.4794 0.7779,-1.141 0.7779,-1.8751 3e-4,-0.7302 -0.296,-1.3921 -0.7779,-1.874 z m -1.8697,-4.2591 c 1.6929,0 3.2256,0.6871 4.3336,1.7952 1.112,1.1078 1.8012,2.645 1.8012,4.3379 0,1.6939 -0.6892,3.2249 -1.8012,4.3389 -1.1078,1.107 -2.641,1.7952 -4.3339,1.7952 -0.3209,0 -0.6341,-0.0241 -0.9482,-0.0751 l -13.6187,25.1229 -0.008,-0.004 c -0.125,0.2381 -0.3061,0.453 -0.5292,0.6302 l -33.9418,27.0819 -19.2002,40.684 0.007,0.01 c 1.1129,1.11 1.7969,2.6422 1.7969,4.335 0,1.694 -0.684,3.229 -1.7969,4.339 -1.108,1.1129 -2.6461,1.8 -4.3322,1.8 -1.7007,0 -3.2317,-0.6868 -4.3429,-1.8 -1.1038,-1.11 -1.7929,-2.645 -1.7929,-4.339 0,-1.6928 0.6891,-3.225 1.7929,-4.335 1.1112,-1.1109 2.6422,-1.7938 4.3429,-1.7938 0.2041,0 0.4011,0.007 0.6081,0.0289 l 19.4031,-41.1162 c 0.1409,-0.2908 0.3379,-0.5397 0.578,-0.7279 l 33.9863,-27.1168 13.4308,-24.7632 c -0.9811,-1.0871 -1.5701,-2.5209 -1.5701,-4.0949 0,-1.6932 0.6891,-3.2301 1.7969,-4.3379 1.1092,-1.1083 2.645,-1.7952 4.3381,-1.7952 z"
           style="fill:#68b32a;fill-rule:evenodd;stroke-width:0.7733289"
           id="path18"
           inkscape:connector-curvature="0" />
        <path
           d="m 262.9975,403.8919 c -0.4779,-0.4779 -1.142,-0.7747 -1.8751,-0.7747 -0.7327,0 -1.3921,0.2968 -1.8708,0.775 -0.4822,0.4828 -0.777,1.1469 -0.777,1.8749 0,0.733 0.2948,1.3969 0.777,1.8751 0.479,0.4759 1.1378,0.773 1.8708,0.773 0.7331,-3e-4 1.3969,-0.2971 1.8751,-0.773 0.4831,-0.4782 0.7779,-1.1421 0.7779,-1.8751 3e-4,-0.728 -0.2948,-1.3921 -0.7779,-1.8749 z M 347.9706,274.612 c -0.4788,-0.4782 -1.1412,-0.775 -1.8751,-0.775 -0.7319,0 -1.3921,0.297 -1.8709,0.775 -0.481,0.481 -0.7781,1.1452 -0.7781,1.874 0,0.733 0.2971,1.3971 0.7781,1.8782 0.4791,0.4739 1.139,0.771 1.8709,0.771 0.7341,-3e-4 1.396,-0.2971 1.8751,-0.771 0.4819,-0.4813 0.7789,-1.1452 0.7789,-1.8782 0,-0.7291 -0.297,-1.393 -0.7789,-1.874 z m -1.8749,-4.2611 c 1.6969,0 3.2307,0.6883 4.3388,1.7972 1.1069,1.112 1.796,2.649 1.796,4.3379 0,1.6931 -0.6891,3.23 -1.796,4.3381 -1.1078,1.1081 -2.6419,1.796 -4.339,1.796 -0.3297,0 -0.658,-0.0249 -0.976,-0.074 l -20.3479,37.086 h -0.003 c -0.1202,0.2177 -0.2851,0.419 -0.4892,0.589 l -31.3609,26.1519 -19.942,34.35 -7.5651,20.6572 0.0491,0.0479 c 1.1089,1.1089 1.8008,2.6461 1.8008,4.339 0,1.6939 -0.6919,3.2261 -1.8008,4.337 -1.107,1.1089 -2.6402,1.7949 -4.3382,1.7949 -1.6889,0 -3.2238,-0.686 -4.3339,-1.7949 -1.1109,-1.1112 -1.7951,-2.6431 -1.7951,-4.337 2e-4,-1.6932 0.684,-3.2301 1.7951,-4.339 1.1101,-1.1061 2.645,-1.7949 4.3339,-1.7949 0.1891,-3e-4 0.3711,0.006 0.557,0.0238 l 7.725,-21.015 19.9712,-34.4009 c 0.1488,-0.3331 0.3787,-0.6001 0.656,-0.8011 l 31.3171,-26.1119 20.166,-36.7631 c -0.963,-1.084 -1.5523,-2.514 -1.5523,-4.079 3e-4,-1.6889 0.6871,-3.2259 1.8,-4.3379 1.1072,-1.1092 2.6399,-1.7969 4.3331,-1.7969 z"
           style="fill:#68b32a;fill-rule:evenodd;stroke-width:0.7733289"
           id="path20"
           inkscape:connector-curvature="0" />
        <path
           d="m 311.4938,258.2229 c -0.4762,-0.4779 -1.1404,-0.7778 -1.8754,-0.7778 -0.7279,0 -1.391,0.2999 -1.87,0.7781 -0.4799,0.4776 -0.7778,1.1409 -0.7778,1.8748 0,0.7299 0.2979,1.3921 0.7778,1.874 0.479,0.4779 1.1421,0.7741 1.87,0.7741 0.735,0 1.3992,-0.2959 1.8751,-0.7741 0.4819,-0.4819 0.781,-1.1441 0.781,-1.874 0,-0.7339 -0.2991,-1.3969 -0.781,-1.8748 z m -1.8751,-4.2588 c 1.6991,0 3.2318,0.688 4.3378,1.7961 1.1121,1.1077 1.8009,2.645 1.8009,4.3378 0,1.6897 -0.6888,3.2261 -1.8009,4.3382 -1.106,1.1077 -2.639,1.796 -4.3381,1.796 l -0.1378,-3e-4 -5.2251,7.4571 c -0.0241,0.0488 -0.0561,0.0941 -0.0901,0.14 l -46.8978,63.6781 0.1559,50.936 c 0,1.1381 -0.9241,2.0591 -2.0599,2.0591 -1.1401,-3e-4 -2.0591,-0.921 -2.0591,-2.0591 l -0.1579,-51.6041 c 0,-0.506 0.1859,-0.9709 0.4909,-1.334 l 47.2162,-64.1072 0.0419,-0.0567 4.6531,-6.6541 -0.2631,-0.2508 c -1.1131,-1.1121 -1.7951,-2.6482 -1.7951,-4.3382 0,-1.6931 0.682,-3.2301 1.7949,-4.3378 1.1092,-1.1081 2.6461,-1.7961 4.333,-1.7961 z"
           style="fill:#68b32a;fill-rule:evenodd;stroke-width:0.7733289"
           id="path22"
           inkscape:connector-curvature="0" />
        <path
           d="m 298.9335,244.4638 c -0.4779,-0.4776 -1.1421,-0.7744 -1.8751,-0.7744 -0.7288,-3e-4 -1.3958,0.2968 -1.8749,0.7744 -0.4779,0.4776 -0.7741,1.1455 -0.7741,1.8748 3e-4,0.7334 0.2959,1.3961 0.7741,1.8735 0.4791,0.4785 1.1461,0.775 1.8749,0.775 0.733,0 1.3972,-0.2965 1.8751,-0.775 0.4759,-0.4774 0.7781,-1.1401 0.7781,-1.8735 0,-0.7296 -0.3022,-1.3969 -0.7781,-1.8748 z m -1.8749,-4.2599 c 1.6929,0 3.2259,0.6874 4.3388,1.7963 1.1111,1.1118 1.7971,2.645 1.7971,4.3384 0,1.6923 -0.686,3.2253 -1.7971,4.3373 -1.1129,1.1084 -2.6459,1.7966 -4.339,1.7966 l -0.3328,-0.008 -9.7061,23.1489 c -0.0579,0.1519 -0.127,0.3013 -0.2231,0.4402 l -38.3579,56.766 0.123,63.5429 c 0.006,1.127 -0.9102,2.052 -2.0432,2.0591 -1.1338,0.004 -2.0559,-0.9111 -2.0639,-2.043 l -0.123,-64.1851 c 0,-0.4329 0.127,-0.8289 0.3501,-1.158 l -0.006,-0.005 38.5991,-57.1189 9.652,-23.0412 -0.205,-0.1939 c -1.108,-1.1123 -1.7971,-2.6447 -1.7971,-4.3373 0,-1.6934 0.6891,-3.2266 1.7969,-4.3384 1.112,-1.1089 2.6441,-1.7963 4.337,-1.7963 z"
           style="fill:#68b32a;fill-rule:evenodd;stroke-width:0.7733289"
           id="path24"
           inkscape:connector-curvature="0" />
        <path
           d="m 180.6074,404.604 c -0.4768,-0.4779 -1.1409,-0.779 -1.8688,-0.779 -0.7351,0 -1.4021,0.3011 -1.8811,0.779 -0.476,0.4779 -0.7742,1.1421 -0.7742,1.8731 3e-4,0.7351 0.2982,1.3989 0.7742,1.8749 0.479,0.4779 1.146,0.7772 1.8811,0.7772 0.7279,0 1.3918,-0.299 1.8688,-0.7772 0.4822,-0.476 0.779,-1.1398 0.779,-1.8749 0,-0.731 -0.2971,-1.3949 -0.779,-1.8731 z m -57.0659,-42.281 c -0.4771,-0.4759 -1.1401,-0.777 -1.8751,-0.777 -0.7288,0 -1.3958,0.3011 -1.874,0.777 -0.4768,0.479 -0.775,1.146 -0.775,1.8751 0,0.7311 0.2982,1.393 0.775,1.8751 0.4782,0.4768 1.1452,0.7739 1.874,0.7739 0.735,0 1.398,-0.2971 1.8751,-0.7739 0.4819,-0.4821 0.7738,-1.144 0.7738,-1.8751 3e-4,-0.7291 -0.2919,-1.3961 -0.7738,-1.8751 z m -6.213,-2.463 c 1.1129,-1.1121 2.645,-1.8 4.3379,-1.8 1.6942,0 3.2249,0.6882 4.339,1.8 0.642,0.6431 1.14,1.4252 1.4502,2.298 l 11.19,0.0329 c 0.4428,-0.0329 0.906,0.0802 1.3048,0.3492 l 23.0652,15.558 c 0.3138,0.1978 0.5698,0.479 0.7458,0.8319 l 9.447,19.3709 2.778,2.6912 c 0.8322,-0.4181 1.762,-0.648 2.7522,-0.648 1.6928,0 3.2238,0.684 4.3319,1.796 1.1131,1.1089 1.7968,2.6459 1.7968,4.337 3e-4,1.694 -0.684,3.2329 -1.7968,4.3339 -1.1081,1.114 -2.6391,1.8031 -4.3319,1.8031 -1.6991,0 -3.2313,-0.6891 -4.339,-1.8031 -1.1132,-1.101 -1.8,-2.6399 -1.8,-4.3339 0,-0.896 0.197,-1.7501 0.5439,-2.52 l -3.0659,-2.969 c -0.1721,-0.1701 -0.3133,-0.3659 -0.4173,-0.572 h -0.003 l -9.36,-19.1869 -22.138,-14.9332 -10.717,-0.0289 c -0.3081,0.8609 -0.803,1.6311 -1.4371,2.266 -1.1138,1.1109 -2.6451,1.8009 -4.339,1.8009 -1.6929,0 -3.225,-0.69 -4.3379,-1.8009 -1.1081,-1.1092 -1.7952,-2.645 -1.7952,-4.335 3e-4,-1.6931 0.6871,-3.225 1.7952,-4.3381 z"
           style="fill:#68b32a;fill-rule:evenodd;stroke-width:0.7733289"
           id="path26"
           inkscape:connector-curvature="0" />
        <path
           d="m 198.8665,409.087 c -0.4782,-0.4779 -1.1449,-0.779 -1.8791,-0.779 -0.7288,0 -1.3921,0.3011 -1.8688,0.779 -0.4831,0.4822 -0.7801,1.146 -0.7801,1.8751 0,0.733 0.297,1.3969 0.7801,1.8771 0.477,0.4737 1.1398,0.7699 1.8688,0.7699 0.7342,0 1.4009,-0.2959 1.8791,-0.7699 0.4779,-0.4802 0.7739,-1.1441 0.7739,-1.8771 3e-4,-0.7291 -0.296,-1.3929 -0.7739,-1.8751 z m -86.9221,-78.6331 c -0.4768,-0.4779 -1.141,-0.7789 -1.8749,-0.7789 -0.7321,0 -1.3932,0.301 -1.8694,0.7792 -0.4819,0.4779 -0.7795,1.1409 -0.7795,1.87 0,0.7328 0.2973,1.3969 0.7795,1.8788 0.4762,0.4782 1.1373,0.7742 1.8694,0.7742 0.7339,-3e-4 1.3981,-0.296 1.8749,-0.7742 0.4822,-0.4819 0.7789,-1.146 0.7789,-1.8788 3e-4,-0.7291 -0.2967,-1.3921 -0.7789,-1.87 z m -1.8749,-4.2639 c 1.698,0 3.231,0.688 4.339,1.8 1.107,1.109 1.8,2.6451 1.8,4.3342 0,1.2898 -0.3991,2.484 -1.076,3.4688 l 8.2239,11.317 25.6782,6.789 c 0.2959,0.0621 0.5839,0.1942 0.8399,0.3971 l 24.101,18.925 v 0.004 c 0.1681,0.1301 0.3209,0.294 0.4439,0.4822 l 20.751,31.3917 c 0.5732,-0.1769 1.1821,-0.2707 1.817,-0.2707 1.698,-3e-4 3.2301,0.686 4.341,1.7949 1.1041,1.1129 1.7972,2.645 1.7972,4.339 0,1.6929 -0.6931,3.2241 -1.7972,4.335 -1.1109,1.1098 -2.643,1.7969 -4.341,1.7969 -1.6888,0 -3.2261,-0.6868 -4.333,-1.7969 -1.1137,-1.1109 -1.7969,-2.6421 -1.7969,-4.335 0,-1.2521 0.375,-2.4199 1.0171,-3.3871 l -20.696,-31.3189 -23.512,-18.4671 -26.0691,-6.8939 c -0.4791,-0.127 -0.8739,-0.4059 -1.1421,-0.7809 l -0.004,-3e-4 -8.6468,-11.9018 c -0.5471,0.1638 -1.1333,0.2511 -1.7351,0.2511 -1.6931,-3e-4 -3.2255,-0.6882 -4.3327,-1.796 -1.1135,-1.1132 -1.7972,-2.645 -1.7972,-4.343 3e-4,-1.6891 0.6837,-3.2252 1.7972,-4.3342 1.1072,-1.112 2.6396,-1.8 4.3327,-1.8 z"
           style="fill:#68b32a;fill-rule:evenodd;stroke-width:0.7733289"
           id="path28"
           inkscape:connector-curvature="0" />
        <path
           d="m 139.3605,311.5037 c -0.5111,-0.4456 -1.1939,-0.6967 -1.923,-0.6426 -0.7291,0.0488 -1.3731,0.3949 -1.817,0.902 -0.4451,0.5148 -0.692,1.194 -0.6441,1.9239 0.0522,0.7288 0.396,1.372 0.9071,1.817 0.5111,0.445 1.1948,0.6911 1.9239,0.642 0.7302,-0.0498 1.372,-0.3909 1.8162,-0.9008 0.4458,-0.5162 0.6927,-1.1951 0.644,-1.925 -0.049,-0.7282 -0.3952,-1.3711 -0.9071,-1.8162 z m -2.1659,-4.1195 c 1.688,-0.1202 3.2669,0.4609 4.4529,1.491 1.1809,1.0258 1.9769,2.5089 2.0971,4.1978 0.0978,1.463 -0.3201,2.85 -1.1072,3.964 l 8.9342,12.6099 13.3481,5.722 c 1.0428,0.4411 1.5287,1.6481 1.0879,2.6901 -0.4462,1.0431 -1.652,1.529 -2.6941,1.084 l -13.8829,-5.9491 c -0.3852,-0.161 -0.6891,-0.4249 -0.9031,-0.7458 l -9.237,-13.0399 c -0.3991,0.1119 -0.811,0.1819 -1.2402,0.216 -1.6877,0.1148 -3.2709,-0.4621 -4.4498,-1.4922 -1.1849,-1.0301 -1.9752,-2.5129 -2.101,-4.2018 -0.114,-1.6892 0.4629,-3.2672 1.493,-4.4532 1.0289,-1.1821 2.512,-1.978 4.2021,-2.0928 z"
           style="fill:#68b32a;fill-rule:evenodd;stroke-width:0.7733289"
           id="path30"
           inkscape:connector-curvature="0" />
        <path
           d="m 227.7484,403.6439 c -0.4759,-0.4759 -1.1401,-0.7767 -1.8739,-0.7767 -0.7331,-3e-4 -1.3921,0.3008 -1.8689,0.777 -0.483,0.4779 -0.7801,1.1418 -0.7801,1.87 0,0.7359 0.2971,1.4 0.7801,1.8788 0.477,0.4791 1.1358,0.7761 1.8689,0.7761 0.7341,0 1.398,-0.297 1.8739,-0.7761 0.4831,-0.4788 0.7801,-1.1429 0.7801,-1.8788 0,-0.7282 -0.297,-1.3921 -0.7801,-1.87 z M 137.7966,287.6511 c -0.479,-0.4791 -1.1381,-0.775 -1.8711,-0.775 -0.7339,-3e-4 -1.3961,0.2959 -1.874,0.775 -0.483,0.4821 -0.7801,1.1449 -0.7801,1.8751 0,0.7316 0.2971,1.3949 0.7801,1.874 0.4779,0.4776 1.1401,0.7738 1.874,0.7738 0.733,0 1.3921,-0.2959 1.8708,-0.7738 0.4811,-0.4794 0.7782,-1.1421 0.7782,-1.874 0,-0.7302 -0.2971,-1.393 -0.7782,-1.8751 z m -1.8711,-4.2611 c 1.6931,0 3.225,0.688 4.333,1.7972 1.1129,1.1078 1.802,2.645 1.802,4.339 0,1.3946 -0.4711,2.6849 -1.258,3.7148 l 15.7989,24.2149 36.0023,21.513 c 0.3418,0.1741 0.6397,0.4493 0.8407,0.8093 l 32.1012,59.6137 0.3289,-0.01 c 1.699,0 3.23,0.6911 4.3378,1.798 1.1084,1.1109 1.7972,2.645 1.7972,4.3342 0,1.698 -0.6891,3.2309 -1.7972,4.339 -1.1078,1.1137 -2.6388,1.8 -4.3378,1.8 -1.694,-3e-4 -3.2262,-0.686 -4.3331,-1.8 -1.1129,-1.1081 -1.8,-2.641 -1.8,-4.339 0,-1.6892 0.6871,-3.223 1.8,-4.3342 l 0.1882,-0.1839 -31.572,-58.6942 -35.998,-21.509 c -0.3061,-0.169 -0.549,-0.3989 -0.7251,-0.6758 v -3e-4 L 137.3635,295.49 c -0.4569,0.1108 -0.9431,0.1692 -1.438,0.1692 -1.6929,-3e-4 -3.2309,-0.6882 -4.3382,-1.796 -1.1077,-1.1132 -1.7968,-2.6442 -1.7968,-4.337 0,-1.6943 0.6891,-3.2312 1.7968,-4.339 1.1073,-1.1092 2.645,-1.7972 4.3382,-1.7972 z"
           style="fill:#68b32a;fill-rule:evenodd;stroke-width:0.7733289"
           id="path32"
           inkscape:connector-curvature="0" />
        <path
           d="m 244.3654,407.8879 c -0.4799,-0.4779 -1.1469,-0.7809 -1.8791,-0.7809 -0.7307,0 -1.3929,0.303 -1.8708,0.7812 -0.4831,0.4788 -0.7742,1.1429 -0.7742,1.8749 3e-4,0.731 0.2911,1.3949 0.7742,1.8731 0.4779,0.481 1.1401,0.775 1.8708,0.775 0.7322,-3e-4 1.3992,-0.294 1.8791,-0.775 0.4762,-0.4782 0.773,-1.1421 0.773,-1.8731 0,-0.732 -0.297,-1.3961 -0.773,-1.8749 z M 143.5476,272.4449 c -0.4791,-0.4779 -1.1421,-0.7747 -1.8712,-0.7747 -0.733,-3e-4 -1.4,0.2968 -1.8748,0.775 -0.4822,0.4819 -0.7781,1.1449 -0.7781,1.8739 0,0.7328 0.2959,1.397 0.7781,1.8749 0.4748,0.4779 1.1418,0.7781 1.8748,0.7781 0.7291,0 1.3921,-0.2999 1.8712,-0.7781 0.4818,-0.4782 0.7778,-1.1418 0.7778,-1.8749 0,-0.7293 -0.296,-1.392 -0.7778,-1.8739 z m -1.8712,-4.2599 c 1.6892,0 3.225,0.6882 4.335,1.796 1.1112,1.1089 1.7941,2.645 1.7941,4.3381 0,1.4089 -0.4731,2.7071 -1.2762,3.7449 l 20.4993,31.9649 35.936,24.495 -0.004,0.005 c 0.2563,0.1681 0.4703,0.3991 0.6353,0.6792 l 37.8138,68.5148 c 0.3521,-0.0629 0.713,-0.0958 1.0769,-0.0958 1.6971,-3e-4 3.2281,0.6868 4.3362,1.798 1.11,1.1058 1.8,2.645 1.8,4.3379 0,1.6939 -0.69,3.2241 -1.8,4.333 -1.1081,1.1129 -2.6391,1.7949 -4.3362,1.7949 -1.6937,0 -3.2269,-0.682 -4.3347,-1.7949 -1.1132,-1.1092 -1.7972,-2.6391 -1.7972,-4.333 0,-1.5339 0.5602,-2.9331 1.4891,-4.008 l -37.584,-68.0949 -35.892,-24.4684 c -0.2379,-0.1639 -0.432,-0.3657 -0.5772,-0.5998 l -20.7127,-32.2991 c -0.453,0.1068 -0.9233,0.1601 -1.4012,0.1601 -1.6968,0 -3.2289,-0.6879 -4.3418,-1.796 -1.1052,-1.112 -1.7972,-2.645 -1.7972,-4.3379 0,-1.6931 0.692,-3.2289 1.7972,-4.3381 1.1129,-1.1078 2.645,-1.796 4.3418,-1.796 z"
           style="fill:#68b32a;fill-rule:evenodd;stroke-width:0.7733289"
           id="path34"
           inkscape:connector-curvature="0" />
        <path
           d="m 180.8175,360.436 c -0.4771,-0.4771 -1.1401,-0.7739 -1.8751,-0.7739 -0.728,0 -1.3918,0.2971 -1.8681,0.7739 -0.4827,0.479 -0.7798,1.146 -0.7798,1.8751 0,0.735 0.2971,1.398 0.7798,1.874 0.4763,0.483 1.1401,0.7769 1.8681,0.7769 0.735,0 1.398,-0.2939 1.8751,-0.7769 0.4822,-0.476 0.7801,-1.139 0.7801,-1.874 0,-0.7291 -0.2982,-1.3961 -0.7801,-1.8751 z m -1.8749,-4.258 c 1.6969,0 3.231,0.6872 4.3388,1.7972 1.1072,1.1109 1.796,2.6419 1.796,4.3359 3e-4,1.472 -0.5151,2.823 -1.3791,3.8761 l 14.4253,23.7639 c 0.5859,0.9678 0.2718,2.234 -0.6962,2.8171 -0.9678,0.5859 -2.2281,0.2798 -2.8128,-0.6922 l -14.423,-23.7569 c -0.4039,0.0819 -0.8192,0.127 -1.2492,0.127 -1.6869,0 -3.225,-0.6891 -4.3319,-1.7969 -1.1141,-1.1112 -1.8012,-2.645 -1.8012,-4.3381 3e-4,-1.694 0.6871,-3.225 1.8012,-4.3359 1.1072,-1.1103 2.645,-1.7972 4.3319,-1.7972 z"
           style="fill:#68b32a;fill-rule:evenodd;stroke-width:0.7733289"
           id="path36"
           inkscape:connector-curvature="0" />
        <path
           d="m 170.6306,345.507 c -0.479,-0.479 -1.146,-0.7778 -1.8751,-0.7778 -0.7339,-3e-4 -1.3969,0.2988 -1.874,0.7778 -0.479,0.4791 -0.7761,1.1421 -0.7761,1.8712 3e-4,0.7319 0.2971,1.4 0.7761,1.8779 0.4771,0.4788 1.1401,0.7759 1.874,0.7759 0.7291,0 1.3961,-0.2968 1.8748,-0.7759 0.4771,-0.4782 0.7742,-1.146 0.7742,-1.8779 0,-0.7291 -0.2971,-1.3921 -0.7742,-1.8712 z m 40.6809,53.61 c -0.478,-0.4779 -1.141,-0.779 -1.8752,-0.779 -0.7327,0 -1.3929,0.3011 -1.8748,0.779 -0.4771,0.4821 -0.7741,1.146 -0.7741,1.8751 3e-4,0.7279 0.297,1.3921 0.7741,1.8751 0.4819,0.4779 1.1421,0.7719 1.8748,0.7719 0.7342,0 1.3972,-0.294 1.8752,-0.7719 0.4821,-0.4833 0.7789,-1.1472 0.7789,-1.8751 0,-0.7291 -0.297,-1.393 -0.7789,-1.8751 z m -42.556,-57.871 c 1.694,0 3.2258,0.686 4.337,1.7991 0.557,0.5539 1.006,1.215 1.3198,1.9559 l 2.2411,-0.1281 6.7762,-0.3858 v 0.003 c 0.7458,-0.042 1.4907,0.333 1.8918,1.0261 l 24.6351,49.3628 c 1.4899,0.127 2.827,0.7773 3.818,1.7751 1.11,1.1072 1.7969,2.645 1.7969,4.3381 3e-4,1.6931 -0.6869,3.2261 -1.7969,4.333 -1.1069,1.1118 -2.6391,1.802 -4.3382,1.802 -1.6928,0 -3.2249,-0.6899 -4.3327,-1.802 -1.1132,-1.1072 -1.7972,-2.6399 -1.7972,-4.333 0,-1.6931 0.684,-3.2309 1.7972,-4.3381 0.2338,-0.2399 0.4949,-0.457 0.7668,-0.6549 l -23.476,-47.336 -5.4369,0.3101 -2.315,0.1307 c -0.2971,1.0012 -0.832,1.8961 -1.55,2.6121 -1.1109,1.107 -2.643,1.7972 -4.337,1.7972 -1.6929,-3e-4 -3.2261,-0.6902 -4.3381,-1.7972 -1.1129,-1.108 -1.7969,-2.641 -1.7969,-4.3378 0,-1.6943 0.684,-3.227 1.7969,-4.3331 1.112,-1.1131 2.645,-1.7991 4.3381,-1.7991 z"
           style="fill:#68b32a;fill-rule:evenodd;stroke-width:0.7733289"
           id="path38"
           inkscape:connector-curvature="0" />
        <path
           d="m 194.0785,312.9409 c -0.4782,-0.4768 -1.1401,-0.7738 -1.874,-0.7738 -0.729,0 -1.396,0.297 -1.8751,0.7741 -0.4768,0.4827 -0.7738,1.1458 -0.7738,1.8748 0,0.7331 0.2967,1.3972 0.7738,1.878 0.4791,0.479 1.1461,0.7702 1.8751,0.7702 0.7339,0 1.3958,-0.2912 1.874,-0.7702 0.4791,-0.4808 0.775,-1.1449 0.775,-1.878 0,-0.729 -0.2959,-1.3918 -0.775,-1.8748 z m -1.874,-4.2599 c 1.6929,0 3.231,0.6891 4.3379,1.796 1.112,1.109 1.7972,2.645 1.7972,4.339 0,0.4 -0.038,0.7912 -0.1131,1.1651 l 7.897,4.6678 c 0.2852,0.1701 0.5369,0.4121 0.7189,0.7143 l 12.0381,20.1509 c 0.5792,0.978 0.2659,2.238 -0.7089,2.818 -0.6321,0.377 -1.3802,0.377 -1.995,0.0669 -0.33,-0.1679 -0.6183,-0.4329 -0.8232,-0.7739 l -3.1468,-5.269 -8.619,-14.4281 -1.4182,-0.8359 -6.0338,-3.5669 c -1.063,0.8938 -2.4352,1.4239 -3.9311,1.4239 -1.6931,0 -3.2249,-0.688 -4.3381,-1.7989 -1.1078,-1.1041 -1.7969,-2.641 -1.7969,-4.3342 0,-1.6942 0.6888,-3.2298 1.7969,-4.339 1.1132,-1.1069 2.645,-1.796 4.3381,-1.796 z"
           style="fill:#68b32a;fill-rule:evenodd;stroke-width:0.7733289"
           id="path40"
           inkscape:connector-curvature="0" />
        <path
           d="m 188.8925,298.1682 c -0.479,-0.4782 -1.1409,-0.775 -1.8751,-0.775 -0.7327,-3e-4 -1.396,0.297 -1.8748,0.775 -0.4822,0.4816 -0.7742,1.1449 -0.7742,1.8739 0,0.7336 0.292,1.397 0.7742,1.8749 0.479,0.4779 1.1418,0.775 1.8748,0.775 0.7342,0 1.3961,-0.2968 1.8751,-0.775 0.4819,-0.4779 0.779,-1.141 0.779,-1.8749 0,-0.729 -0.2971,-1.3921 -0.779,-1.8739 z m -1.8751,-4.2602 c 1.6932,0 3.2301,0.6879 4.3382,1.7971 1.108,1.1067 1.8008,2.6439 1.8008,4.337 l -0.009,0.2231 12.1527,4.8158 c 0.3702,0.14 0.7092,0.383 0.9561,0.7291 l 21.744,30.268 c 0.2472,0.3368 0.387,0.7529 0.387,1.2059 l -0.182,24.6319 c 0,1.1333 -0.9258,2.0452 -2.0588,2.0393 -1.1282,-3e-4 -2.0472,-0.9261 -2.0432,-2.0591 l 0.0411,-5.385 0.1329,-18.5791 -21.0039,-29.2382 -11.6418,-4.6137 c -0.0871,0.1029 -0.1812,0.2021 -0.2761,0.2971 -1.1081,1.1117 -2.645,1.8 -4.3382,1.8 -1.6928,-3e-4 -3.2289,-0.688 -4.333,-1.8 -1.1129,-1.1092 -1.802,-2.6411 -1.802,-4.3351 0,-1.6931 0.6891,-3.23 1.802,-4.337 1.1041,-1.1092 2.6402,-1.7971 4.333,-1.7971 z"
           style="fill:#68b32a;fill-rule:evenodd;stroke-width:0.7733289"
           id="path42"
           inkscape:connector-curvature="0" />
        <path
           d="m 188.2125,251.0963 c -0.4771,-0.4773 -1.146,-0.7787 -1.8751,-0.7787 -0.7319,0 -1.3949,0.3014 -1.874,0.779 -0.4768,0.4774 -0.7739,1.1409 -0.7739,1.87 0,0.7333 0.2968,1.4006 0.7739,1.8785 0.4791,0.478 1.1421,0.775 1.874,0.775 0.7291,0 1.398,-0.297 1.8751,-0.775 0.4779,-0.4782 0.7739,-1.1452 0.7739,-1.8785 2e-4,-0.7291 -0.296,-1.3926 -0.7739,-1.87 z m -1.8751,-4.259 c 1.6943,0 3.2261,0.6831 4.339,1.7951 1.108,1.109 1.796,2.6453 1.796,4.3342 0,1.6974 -0.688,3.2304 -1.796,4.3376 -0.33,0.3299 -0.6928,0.6188 -1.088,0.866 l 4.2152,19.2138 11.9128,4.532 c 1.0582,0.3988 1.5951,1.586 1.1999,2.649 -0.4008,1.059 -1.5868,1.5981 -2.645,1.1982 l -12.9648,-4.9263 c -0.68,-0.26 -1.1421,-0.8317 -1.2849,-1.4919 h -0.005 l -4.449,-20.2901 c -1.3839,-0.1761 -2.6291,-0.8107 -3.568,-1.7507 -1.108,-1.1072 -1.7952,-2.6402 -1.7952,-4.3376 3e-4,-1.6892 0.6872,-3.2252 1.7952,-4.3342 1.1129,-1.1123 2.645,-1.7951 4.3379,-1.7951 z"
           style="fill:#68b32a;fill-rule:evenodd;stroke-width:0.7733289"
           id="path44"
           inkscape:connector-curvature="0" />
        <path
           d="m 172.1695,243.7174 c -0.477,-0.4773 -1.1401,-0.7781 -1.8739,-0.7781 -0.7291,-2e-4 -1.3972,0.3008 -1.8732,0.7784 -0.4787,0.4774 -0.7758,1.1415 -0.7758,1.8743 0,0.7333 0.2968,1.3972 0.7758,1.8751 0.4762,0.4779 1.1441,0.7744 1.8732,0.7744 0.7338,0 1.3969,-0.2965 1.8739,-0.7744 0.4791,-0.4782 0.7759,-1.1415 0.7759,-1.8751 0,-0.7328 -0.2968,-1.3969 -0.7759,-1.8743 z m -1.8739,-4.259 c 1.6928,0 3.2269,0.688 4.3378,1.7963 1.1132,1.1078 1.7972,2.6444 1.7972,4.3373 0,1.6934 -0.684,3.2301 -1.7972,4.339 -0.1978,0.193 -0.4079,0.379 -0.625,0.544 l 10.794,34.016 25.3301,9.4989 c 0.3719,0.1361 0.709,0.3841 0.961,0.7291 l 26.9929,37.5772 c 0.2721,0.3577 0.4241,0.807 0.411,1.2928 l -1.277,42.8281 c -0.034,1.1339 -0.9799,2.024 -2.1129,1.986 -1.133,-0.0332 -2.0231,-0.9851 -1.99,-2.1181 l 1.2521,-42.131 -26.2511,-36.5341 -25.698,-9.6349 c -0.6129,-0.2322 -1.0559,-0.726 -1.2399,-1.3068 l -0.004,-3e-4 -11.0951,-34.9551 c -1.61,-0.0536 -3.0611,-0.7331 -4.1229,-1.7918 -1.1101,-1.1092 -1.7972,-2.6456 -1.7972,-4.339 3e-4,-1.6931 0.6871,-3.2295 1.7972,-4.3373 1.1108,-1.1086 2.643,-1.7963 4.337,-1.7963 z"
           style="fill:#68b32a;fill-rule:evenodd;stroke-width:0.7733289"
           id="path46"
           inkscape:connector-curvature="0" />
        <path
           d="m 229.6426,281.9818 c -0.48,-0.4777 -1.139,-0.7787 -1.872,-0.7787 -0.7339,0 -1.3981,0.301 -1.874,0.7789 -0.4831,0.4768 -0.7801,1.141 -0.7801,1.8701 0,0.7327 0.297,1.3969 0.7801,1.879 0.4759,0.478 1.1398,0.7739 1.874,0.7739 0.733,0 1.3918,-0.2959 1.872,-0.7739 0.479,-0.4821 0.7769,-1.146 0.7769,-1.879 0,-0.7291 -0.2982,-1.393 -0.7769,-1.8701 z m -1.872,-4.2597 c 1.6939,0 3.2249,0.688 4.333,1.7961 1.1129,1.1089 1.8,2.645 1.8,4.3339 0,1.6979 -0.6871,3.2289 -1.8,4.3421 -0.6931,0.6919 -1.5571,1.2228 -2.522,1.5239 l 0.504,12.0379 4.864,-7.494 c 0.0708,-0.1111 0.1528,-0.21 0.2358,-0.2959 0.5772,-0.5763 1.3961,-0.5729 1.969,0.07 0.6511,0.7379 0.7341,2.035 0.1681,2.8959 l -7.386,11.3882 c -0.2679,0.4158 -0.6591,0.6899 -1.1069,0.7239 -0.8612,0.0618 -1.599,-0.8042 -1.6453,-1.94 l -0.7279,-17.2582 c -1.1659,-0.2508 -2.2079,-0.8399 -3.024,-1.6517 -1.1098,-1.1132 -1.8,-2.6442 -1.8,-4.3421 0,-1.6892 0.69,-3.225 1.8,-4.3339 1.1072,-1.1081 2.6402,-1.7961 4.3382,-1.7961 z"
           style="fill:#68b32a;fill-rule:evenodd;stroke-width:0.7733289"
           id="path48"
           inkscape:connector-curvature="0" />
        <path
           d="m 229.6165,263.4599 c -0.4779,-0.4779 -1.1461,-0.7747 -1.8751,-0.7747 -0.7339,-3e-4 -1.397,0.2968 -1.874,0.775 -0.4791,0.481 -0.775,1.1449 -0.775,1.8748 3e-4,0.7328 0.2959,1.3952 0.775,1.8732 0.477,0.4816 1.1401,0.7749 1.874,0.7749 0.729,-2e-4 1.3972,-0.2931 1.8751,-0.7749 0.477,-0.4782 0.773,-1.1401 0.773,-1.8732 0,-0.7302 -0.296,-1.3938 -0.773,-1.8748 z M 227.7416,259.2 c 1.6929,0 3.2247,0.6871 4.3379,1.8 1.1081,1.1078 1.7949,2.641 1.7949,4.335 0,0.7489 -0.1361,1.4661 -0.379,2.1291 l 11.082,9.256 c 0.4423,0.3676 0.688,0.887 0.7291,1.4139 h 0.004 l 1.6441,20.7182 c 0.0388,0.4699 -0.0862,0.9138 -0.324,1.2809 l -11.075,18.6378 c -0.5771,0.976 -1.8371,1.3011 -2.817,0.7251 -0.9752,-0.5811 -1.2992,-1.8419 -0.7252,-2.819 l 10.7842,-18.15 -1.5239,-19.2061 -10.4142,-8.701 c -0.9151,0.5392 -1.9812,0.8482 -3.1181,0.8482 -1.6929,-3e-4 -3.227,-0.688 -4.3379,-1.7961 -1.1129,-1.108 -1.7972,-2.645 -1.7972,-4.337 3e-4,-1.694 0.684,-3.2269 1.7972,-4.335 1.1109,-1.1132 2.645,-1.8 4.3379,-1.8 z"
           style="fill:#68b32a;fill-rule:evenodd;stroke-width:0.7733289"
           id="path50"
           inkscape:connector-curvature="0" />
        <path
           d="m 249.8014,229.9331 c -0.4768,-0.4773 -1.1409,-0.7786 -1.8689,-0.7786 -0.735,0 -1.4011,0.3013 -1.8802,0.7789 -0.4756,0.4774 -0.7738,1.1455 -0.7738,1.8746 0,0.7333 0.2979,1.3969 0.7738,1.8745 0.4794,0.4774 1.1452,0.775 1.8802,0.775 0.728,-3e-4 1.3918,-0.2976 1.8689,-0.775 0.483,-0.4779 0.775,-1.1412 0.775,-1.8745 0,-0.7294 -0.292,-1.3969 -0.775,-1.8746 z m -1.8689,-4.2596 c 1.6869,0 3.2259,0.6837 4.3331,1.7969 1.1129,1.112 1.796,2.6442 1.796,4.3376 0,1.6931 -0.6831,3.2261 -1.796,4.3384 -0.836,0.8365 -1.9151,1.4329 -3.1221,1.6773 l -1.499,10.4425 8.0039,6.5458 c 0.881,0.7208 1.01,2.0151 0.292,2.8961 -0.72,0.8827 -2.0188,1.01 -2.9018,0.2931 l -8.9,-7.2796 c -0.6052,-0.4944 -0.8583,-1.2651 -0.7191,-1.9854 l 1.654,-11.4988 c -0.5491,-0.2882 -1.048,-0.659 -1.4839,-1.091 -1.1089,-1.1126 -1.7961,-2.645 -1.7961,-4.3384 0,-1.6934 0.6869,-3.2256 1.7961,-4.3376 1.112,-1.1132 2.645,-1.7966 4.3429,-1.7966 z"
           style="fill:#68b32a;fill-rule:evenodd;stroke-width:0.7733289"
           id="path52"
           inkscape:connector-curvature="0" />
        <path
           d="m 241.8264,198.3475 c -0.5238,-0.5232 -1.252,-0.8521 -2.0559,-0.8521 -0.8031,-3e-4 -1.5322,0.3291 -2.056,0.8521 -0.5281,0.5276 -0.8521,1.2572 -0.8521,2.0557 0,0.8039 0.324,1.5333 0.8521,2.0605 0.5241,0.5233 1.2529,0.853 2.056,0.853 0.8041,0 1.5321,-0.3297 2.0559,-0.853 0.527,-0.5275 0.8521,-1.2563 0.8521,-2.0605 0,-0.7985 -0.3251,-1.5279 -0.8521,-2.0557 z m -2.0559,-4.0782 c 1.6931,0 3.2249,0.6877 4.3389,1.8003 1.1112,1.1084 1.7961,2.645 1.7961,4.3336 0,1.6931 -0.6852,3.2309 -1.7961,4.3387 -0.6729,0.6707 -1.5,1.1866 -2.423,1.4908 l -4.1108,48.5183 17.9589,13.6401 c 0.5,0.3259 0.8549,0.8651 0.9261,1.4989 l 2.9829,26.4937 h -0.006 c 0.0451,0.4281 -0.036,0.8785 -0.2761,1.2813 l -13.6349,22.877 c -0.582,0.972 -1.8451,1.2901 -2.8191,0.709 -0.9708,-0.5851 -1.286,-1.846 -0.7089,-2.8188 l 13.278,-22.2792 -2.804,-24.9398 -18.1321,-13.7724 c -0.6338,-0.396 -1.0258,-1.1208 -0.9641,-1.9148 l 4.1891,-49.396 c -0.8059,-0.3089 -1.531,-0.7863 -2.1339,-1.3881 -1.107,-1.1078 -1.7961,-2.6453 -1.7961,-4.3387 0,-1.6889 0.6891,-3.2252 1.7961,-4.3336 1.114,-1.1129 2.645,-1.8003 4.339,-1.8003 z"
           style="fill:#68b32a;fill-rule:evenodd;stroke-width:0.7733289"
           id="path54"
           inkscape:connector-curvature="0" />
        <path
           d="m 319.1278,352.817 c -0.4813,-0.479 -1.1452,-0.7758 -1.8783,-0.7758 -0.7279,0 -1.3921,0.2968 -1.8711,0.7758 -0.4819,0.4819 -0.777,1.1441 -0.777,1.872 0,0.735 0.2951,1.3981 0.777,1.8751 0.479,0.4819 1.1432,0.779 1.8711,0.779 0.7331,0 1.397,-0.2971 1.878,-0.779 0.4799,-0.477 0.7739,-1.1401 0.7739,-1.8751 2e-4,-0.7279 -0.294,-1.3898 -0.7739,-1.872 z m -1.8783,-4.261 c 1.6983,0 3.229,0.6891 4.3419,1.7951 1.108,1.1138 1.7971,2.647 1.7971,4.3379 0,1.694 -0.6891,3.227 -1.7971,4.341 -1.1129,1.1049 -2.6439,1.794 -4.3419,1.794 -1.5409,0 -2.9491,-0.5689 -4.024,-1.508 l -4.4949,2.5311 -13.2412,28.648 c -0.4768,1.033 -1.698,1.4831 -2.7281,1.008 -1.0338,-0.4771 -1.4819,-1.7011 -1.0049,-2.73 l 13.521,-29.2431 c 0.2072,-0.46 0.565,-0.7979 0.989,-1.0009 l 4.9442,-2.7842 c -0.0621,-0.341 -0.0913,-0.6928 -0.0913,-1.0559 3e-4,-1.6909 0.6852,-3.2238 1.7952,-4.3379 1.1109,-1.106 2.6459,-1.7951 4.335,-1.7951 z"
           style="fill:#68b32a;fill-rule:evenodd;stroke-width:0.7733289"
           id="path56"
           inkscape:connector-curvature="0" />
        <path
           d="m 165.6706,405.8719 c -0.4791,-0.4768 -1.1382,-0.7727 -1.8712,-0.7727 -0.7339,-3e-4 -1.3961,0.2959 -1.8748,0.773 -0.4822,0.4819 -0.7793,1.1458 -0.7793,1.8749 3e-4,0.7341 0.2971,1.398 0.7793,1.8751 0.479,0.4768 1.1409,0.7758 1.8748,0.7758 0.733,0 1.3921,-0.299 1.8712,-0.7758 0.4799,-0.4771 0.7778,-1.141 0.7778,-1.8751 3e-4,-0.7291 -0.2979,-1.393 -0.7778,-1.8749 z m -23.6223,-27.576 c -0.4788,-0.481 -1.1457,-0.7778 -1.8748,-0.7778 -0.7339,0 -1.3981,0.2971 -1.8751,0.7781 -0.4788,0.4779 -0.7739,1.1398 -0.7739,1.8709 0,0.7339 0.2951,1.396 0.7739,1.8779 0.477,0.478 1.1412,0.7742 1.8751,0.7742 0.7291,-3e-4 1.396,-0.2962 1.8748,-0.7742 0.4762,-0.4819 0.7742,-1.144 0.7742,-1.8779 0,-0.7311 -0.298,-1.393 -0.7742,-1.8709 z m 17.4991,25.0302 -2.7348,-5.8042 -3.3611,-7.1388 -6.5919,-3.888 -2.7522,-1.62 c -1.0678,0.8901 -2.4381,1.425 -3.9339,1.425 -1.694,0 -3.2309,-0.682 -4.339,-1.7949 -1.1081,-1.1103 -1.7972,-2.645 -1.7972,-4.3381 3e-4,-1.69 0.6891,-3.225 1.7972,-4.339 1.1081,-1.1081 2.645,-1.7909 4.339,-1.7909 1.6931,-3e-4 3.225,0.6828 4.3378,1.7909 1.1053,1.114 1.7952,2.649 1.7952,4.339 0,0.4 -0.0399,0.786 -0.1111,1.165 l 9.8921,5.8309 c 0.343,0.201 0.631,0.506 0.8161,0.8921 l 6.3938,13.5819 c 0.1652,-0.015 0.3342,-0.023 0.502,-0.023 1.6931,0 3.225,0.6871 4.339,1.796 1.1072,1.1121 1.794,2.649 1.794,4.3371 0,1.6928 -0.6868,3.2289 -1.794,4.3409 -1.1137,1.1041 -2.6459,1.7929 -4.339,1.7929 -1.6928,0 -3.2301,-0.6888 -4.339,-1.7929 -1.1078,-1.112 -1.796,-2.6478 -1.796,-4.3409 3e-4,-1.6881 0.6879,-3.225 1.796,-4.3371 z"
           style="fill:#68b32a;fill-rule:evenodd;stroke-width:0.7733289"
           id="path58"
           inkscape:connector-curvature="0" />
        <path
           d="m 159.1435,460.673 c 0.009,2.7941 0.4459,5.0502 1.3019,6.7731 0.8451,1.7328 2.0651,2.9959 3.6582,3.7899 1.5828,0.7869 3.4769,1.1821 5.686,1.171 1.3269,-0.013 2.5707,-0.1939 3.7068,-0.5578 1.1302,-0.3481 2.1561,-0.8351 3.066,-1.448 0.9071,-0.606 1.688,-1.2912 2.3479,-2.0452 0.6443,-0.7628 1.1583,-1.5508 1.5211,-2.359 h 0.1171 c 0,0.007 -0.007,0.152 -0.027,0.4241 -0.0209,0.271 -0.028,0.593 -0.028,0.9641 v 0.8478 c 0,1.099 0.3399,1.944 1.0239,2.541 0.6891,0.593 1.6931,0.894 3.0231,0.9082 l 7.075,-3e-4 v -6.4718 h -2.4191 c -0.4238,0 -0.754,-0.119 -0.9748,-0.3421 -0.2322,-0.233 -0.3552,-0.5649 -0.3552,-0.9879 V 440.841 h -7.6799 v 14.15 c 0,1.3889 -0.1879,2.7 -0.5641,3.9492 -0.3818,1.2399 -0.9349,2.353 -1.671,3.316 -0.7379,0.9657 -1.645,1.724 -2.7119,2.2898 -1.0659,0.551 -2.3072,0.8382 -3.699,0.845 -1.2619,-0.007 -2.2371,-0.273 -2.933,-0.7948 -0.6959,-0.5242 -1.1781,-1.2612 -1.4502,-2.1972 -0.2718,-0.9391 -0.4048,-2.0398 -0.3917,-3.2989 v -14.211 c 0.009,-1.3881 -0.3141,-2.4029 -0.9601,-3.071 -0.6551,-0.6551 -1.6861,-0.989 -3.094,-0.9771 h -7.3171 v 6.529 h 2.4182 c 0.4249,0 0.7549,0.1001 0.9888,0.324 0.223,0.2211 0.3421,0.5531 0.3421,1.006 z"
           style="fill:#ffffff;fill-rule:evenodd;stroke-width:0.7733289"
           id="path60"
           inkscape:connector-curvature="0" />
        <path
           d="m 304.5194,462.4279 c 0.009,-0.8549 0.243,-1.5738 0.6959,-2.1557 0.4414,-0.5743 1.0463,-1.0491 1.7921,-1.3992 0.7464,-0.3671 1.5812,-0.6239 2.488,-0.8189 0.9102,-0.1809 1.83,-0.313 2.7521,-0.3759 0.9332,-0.0641 1.8048,-0.0972 2.6139,-0.087 l 1.3303,-3e-4 v 0.7262 c 0,0.9479 -0.1693,1.897 -0.5151,2.8511 -0.3441,0.9499 -0.826,1.8119 -1.4502,2.6138 -0.6267,0.785 -1.3598,1.4202 -2.2178,1.899 -0.855,0.4751 -1.8043,0.7271 -2.8333,0.7401 -1.0457,-0.013 -1.9108,-0.203 -2.5988,-0.5771 -0.6979,-0.3691 -1.2081,-0.866 -1.5551,-1.4709 -0.3276,-0.5911 -0.502,-1.249 -0.502,-1.9449 z m -7.7408,0.364 c 0.013,1.5412 0.3007,2.9112 0.8688,4.1032 0.574,1.197 1.351,2.1951 2.3281,3.0109 0.9862,0.826 2.105,1.442 3.3659,1.8661 1.2492,0.424 2.5701,0.6349 3.9591,0.6349 1.3929,-0.0229 2.5999,-0.2018 3.638,-0.5649 1.0369,-0.364 1.9281,-0.817 2.643,-1.3521 0.7262,-0.5298 1.311,-1.0789 1.7649,-1.611 0.4402,-0.536 0.7682,-0.9879 0.964,-1.3518 0.2021,-0.3603 0.305,-0.555 0.305,-0.563 l 0.1202,-3e-4 c 0,0.008 -0.013,0.1313 -0.03,0.3702 -0.019,0.2438 -0.0321,0.557 -0.0321,0.9621 0,0.6117 0.1299,1.1648 0.3949,1.6798 0.2622,0.514 0.6761,0.919 1.26,1.2311 0.5732,0.3011 1.3272,0.4609 2.2759,0.4751 l 6.8962,-3e-4 v -6.4718 h -2.4239 c -0.4181,0 -0.7521,-0.119 -0.972,-0.3421 -0.2339,-0.233 -0.3541,-0.5649 -0.3541,-0.9879 v -11.493 c 0.007,-1.732 -0.2029,-3.3441 -0.633,-4.8229 -0.4379,-1.482 -1.15,-2.7851 -2.16,-3.9022 -1.017,-1.1069 -2.3771,-1.978 -4.0889,-2.6019 -1.7292,-0.6222 -3.8631,-0.9349 -6.4242,-0.9499 -0.5437,-3e-4 -1.188,0.0238 -1.9519,0.0768 -0.7589,0.0479 -1.5551,0.1471 -2.399,0.2991 -0.849,0.14 -1.6841,0.3631 -2.5001,0.648 -0.815,0.2928 -1.5611,0.6641 -2.2369,1.1259 -0.667,0.4771 -1.2041,1.0491 -1.603,1.732 -0.4039,0.697 -0.6052,1.514 -0.6151,2.4721 v 3.2629 h 7.1362 v -1.633 c 0.01,-0.4229 0.1619,-0.7628 0.44,-1.0349 0.2928,-0.273 0.6559,-0.476 1.0927,-0.6291 0.4403,-0.1479 0.8861,-0.25 1.3471,-0.3098 0.4643,-0.0592 0.8691,-0.0802 1.2322,-0.0802 1.311,-0.01 2.376,0.1942 3.225,0.5851 0.8382,0.405 1.4629,1.04 1.868,1.9369 0.398,0.8861 0.593,2.0642 0.593,3.5251 v 0.2399 h -0.9729 c -0.8571,-0.008 -1.8841,0.0331 -3.1022,0.102 -1.207,0.0811 -2.5021,0.2322 -3.8801,0.464 -1.3736,0.2339 -2.7209,0.576 -4.0589,1.035 -1.3359,0.468 -2.5551,1.0822 -3.6431,1.8462 -1.095,0.7687 -1.972,1.7348 -2.628,2.8859 -0.6539,1.1481 -0.9878,2.528 -1.0088,4.1321 z"
           style="fill:#ffffff;fill-rule:evenodd;stroke-width:0.7733289"
           id="path62"
           inkscape:connector-curvature="0" />
        <path
           d="m 332.9305,467.5691 c -0.01,1.4429 0.311,2.4889 0.9681,3.1451 0.6539,0.6528 1.6999,0.9748 3.1407,0.968 l 7.2593,-3e-4 v -6.4718 h -2.3601 c -0.4238,0 -0.7541,-0.119 -0.9851,-0.3421 -0.22,-0.233 -0.345,-0.5649 -0.345,-0.9879 l 3e-4,-31.0212 c 0.0119,-1.4097 -0.3231,-2.4619 -0.9901,-3.1238 -0.663,-0.6681 -1.709,-1.002 -3.1212,-0.9901 h -7.3168 v 6.529 h 2.4191 c 0.4237,0 0.7577,0.1052 0.9867,0.322 0.2242,0.2211 0.3441,0.5551 0.3441,1.008 z"
           style="fill:#ffffff;fill-rule:evenodd;stroke-width:0.7733289"
           id="path64"
           inkscape:connector-curvature="0" />
        <path
           d="m 91.8856,452.268 c 0.2812,-1.3 0.7744,-2.4089 1.4575,-3.3358 0.6892,-0.9272 1.5577,-1.643 2.5835,-2.1342 1.0265,-0.5069 2.2051,-0.758 3.519,-0.758 1.0587,0.0119 2.0143,0.271 2.8715,0.796 0.8654,0.5281 1.5485,1.2532 2.0763,2.179 0.5233,0.9249 0.8065,2.0131 0.857,3.253 z m -8.104,3.992 c 0.0128,2.2062 0.3915,4.288 1.1497,6.219 0.7668,1.944 1.8618,3.6581 3.305,5.1412 1.4414,1.4898 3.1762,2.6469 5.2103,3.4968 2.0489,0.8441 4.3478,1.2671 6.9052,1.29 1.5412,-0.013 2.9537,-0.1729 4.2423,-0.4858 1.2822,-0.309 2.4282,-0.6962 3.4373,-1.16 1.008,-0.4532 1.8661,-0.9181 2.5711,-1.3671 0.6959,-0.4641 1.2271,-0.849 1.5939,-1.1611 0.369,-0.3129 0.551,-0.4739 0.551,-0.4819 l -3.204,-5.3232 c 0,0.007 -0.1408,0.1321 -0.426,0.3643 -0.2789,0.2188 -0.6738,0.5128 -1.1894,0.843 -0.5108,0.3447 -1.1294,0.69 -1.8417,1.0298 -0.716,0.334 -1.5117,0.629 -2.3893,0.849 -0.8652,0.233 -1.8043,0.349 -2.8012,0.362 -1.1713,0 -2.2788,-0.18 -3.3253,-0.527 -1.0511,-0.35 -1.9849,-0.8719 -2.8222,-1.567 -0.8354,-0.712 -1.5231,-1.5678 -2.0563,-2.6058 -0.5417,-1.0251 -0.8875,-2.2241 -1.0496,-3.585 l 21.2862,-3e-4 c 0,-0.01 0.009,-0.1108 0.0289,-0.3257 0.0221,-0.1981 0.0411,-0.451 0.0621,-0.752 0.0209,-0.3133 0.0408,-0.6262 0.0578,-0.9392 0.0252,-0.312 0.032,-0.593 0.032,-0.8248 0,-2.0571 -0.3039,-3.9632 -0.8969,-5.7342 -0.593,-1.764 -1.4581,-3.3149 -2.62,-4.6469 -1.1591,-1.33 -2.5872,-2.37 -4.2837,-3.113 -1.7025,-0.748 -3.6587,-1.1299 -5.8632,-1.1449 -2.3188,0.015 -4.436,0.4048 -6.3488,1.192 -1.9196,0.7769 -3.5589,1.8878 -4.951,3.331 -1.3929,1.4278 -2.4565,3.1288 -3.2145,5.0938 -0.7582,1.978 -1.1369,4.1451 -1.1497,6.533 z"
           style="fill:#ffffff;fill-rule:evenodd;stroke-width:0.7733289"
           id="path68"
           inkscape:connector-curvature="0" />
        <path
           d="m 132.9434,465.9341 c -1.521,-0.008 -2.859,-0.413 -4.009,-1.207 -1.1489,-0.7872 -2.0358,-1.908 -2.683,-3.344 -0.642,-1.4562 -0.9748,-3.1581 -0.987,-5.1231 0.0122,-1.5321 0.2131,-2.882 0.625,-4.0688 0.404,-1.1821 0.968,-2.1921 1.6821,-2.9962 0.716,-0.8139 1.5318,-1.433 2.4619,-1.8539 0.936,-0.4241 1.925,-0.635 2.9749,-0.635 1.2853,0.0108 2.4061,0.2821 3.3611,0.8059 0.968,0.5349 1.764,1.2501 2.3989,2.147 0.6472,0.8972 1.12,1.9142 1.4412,3.0441 0.3141,1.1299 0.479,2.2879 0.479,3.4968 -0.013,1.7003 -0.2231,3.1763 -0.648,4.4042 -0.424,1.232 -0.9969,2.236 -1.726,3.026 -0.7339,0.7869 -1.55,1.3689 -2.476,1.7391 -0.919,0.3838 -1.8871,0.5649 -2.8951,0.5649 z m -15.417,-9.6741 c 0.008,2.4001 0.322,4.5882 0.9569,6.5532 0.6421,1.9729 1.5512,3.6768 2.7522,5.0989 1.1849,1.4298 2.6189,2.537 4.2999,3.3129 1.673,0.777 3.5592,1.169 5.6571,1.182 1.33,-0.013 2.499,-0.1599 3.5181,-0.453 1.017,-0.2939 1.8819,-0.648 2.607,-1.0808 0.7259,-0.4312 1.3218,-0.8572 1.7838,-1.2881 0.466,-0.4351 0.794,-0.788 1.0171,-1.08 0.2231,-0.2922 0.3268,-0.443 0.3268,-0.4541 h 0.1202 c 0,0.0111 -0.0221,0.2642 -0.0589,0.7382 -0.0321,0.4819 -0.0542,1.1299 -0.0613,1.925 l 3e-4,13.0578 h 7.6768 V 448.7 c 0,-0.4529 0.1202,-0.7849 0.3521,-1.006 0.2211,-0.2239 0.555,-0.324 0.979,-0.324 h 2.418 v -6.529 h -6.7711 c -1.3808,0.008 -2.378,0.271 -3.0039,0.7682 -0.625,0.4989 -0.9391,1.1449 -0.9261,1.9499 0,0.3339 0,0.6061 0,0.796 0,0.195 0,0.284 0,0.292 h -0.1199 c 0,-0.008 -0.1032,-0.169 -0.326,-0.4731 -0.21,-0.3011 -0.557,-0.673 -1.017,-1.118 -0.4629,-0.453 -1.0681,-0.8949 -1.8202,-1.3479 -0.7509,-0.4411 -1.6477,-0.817 -2.7039,-1.1211 -1.0579,-0.301 -2.291,-0.4618 -3.691,-0.4768 -2.043,0.015 -3.9209,0.3969 -5.6228,1.1568 -1.7031,0.7509 -3.1771,1.8312 -4.426,3.2412 -1.2402,1.4207 -2.2023,3.1149 -2.8792,5.0978 -0.6868,1.98 -1.0298,4.197 -1.038,6.654 z"
           style="fill:#ffffff;fill-rule:evenodd;stroke-width:0.7733289"
           id="path70"
           inkscape:connector-curvature="0" />
        <path
           d="m 159.1435,460.673 c 0.009,2.7941 0.4459,5.0502 1.3019,6.7731 0.8451,1.7328 2.0651,2.9959 3.6582,3.7899 1.5828,0.7869 3.4769,1.1821 5.686,1.171 1.3269,-0.013 2.5707,-0.1939 3.7068,-0.5578 1.1302,-0.3481 2.1561,-0.8351 3.066,-1.448 0.9071,-0.606 1.688,-1.2912 2.3479,-2.0452 0.6443,-0.7628 1.1583,-1.5508 1.5211,-2.359 h 0.1171 c 0,0.007 -0.007,0.152 -0.027,0.4241 -0.0209,0.271 -0.028,0.593 -0.028,0.9641 v 0.8478 c 0,1.099 0.3399,1.944 1.0239,2.541 0.6891,0.593 1.6931,0.894 3.0231,0.9082 l 7.075,-3e-4 v -6.4718 h -2.4191 c -0.4238,0 -0.754,-0.119 -0.9748,-0.3421 -0.2322,-0.233 -0.3552,-0.5649 -0.3552,-0.9879 V 440.841 h -7.6799 v 14.15 c 0,1.3889 -0.1879,2.7 -0.5641,3.9492 -0.3818,1.2399 -0.9349,2.353 -1.671,3.316 -0.7379,0.9657 -1.645,1.724 -2.7119,2.2898 -1.0659,0.551 -2.3072,0.8382 -3.699,0.845 -1.2619,-0.007 -2.2371,-0.273 -2.933,-0.7948 -0.6959,-0.5242 -1.1781,-1.2612 -1.4502,-2.1972 -0.2718,-0.9391 -0.4048,-2.0398 -0.3917,-3.2989 v -14.211 c 0.009,-1.3881 -0.3141,-2.4029 -0.9601,-3.071 -0.6551,-0.6551 -1.6861,-0.989 -3.094,-0.9771 h -7.3171 v 6.529 h 2.4182 c 0.4249,0 0.7549,0.1001 0.9888,0.324 0.223,0.2211 0.3421,0.5531 0.3421,1.006 z"
           style="fill:#ffffff;fill-rule:evenodd;stroke-width:0.7733289"
           id="path72"
           inkscape:connector-curvature="0" />
        <path
           d="m 350.5286,467.5691 c -0.0131,1.4429 0.3138,2.4889 0.9649,3.1451 0.659,0.6528 1.705,0.9748 3.147,0.968 l 7.2553,-3e-4 v -6.4718 h -2.3613 c -0.4198,0 -0.75,-0.119 -0.985,-0.3421 -0.2217,-0.233 -0.3422,-0.5649 -0.3422,-0.9879 l 3e-4,-31.0212 c 0.009,-1.4097 -0.3211,-2.4619 -0.9881,-3.1238 -0.667,-0.6681 -1.715,-1.002 -3.123,-0.9901 h -7.3168 v 6.529 h 2.4149 c 0.4272,0 0.7568,0.1052 0.987,0.322 0.2239,0.2211 0.347,0.5551 0.347,1.008 z"
           style="fill:#ffffff;fill-rule:evenodd;stroke-width:0.7733289"
           id="path74"
           inkscape:connector-curvature="0" />
        <path
           d="m 373.3276,452.268 c 0.279,-1.3 0.7739,-2.4089 1.4567,-3.3358 0.6843,-0.9272 1.5543,-1.643 2.5813,-2.1342 1.029,-0.5069 2.2079,-0.758 3.5158,-0.758 1.0593,0.0119 2.0211,0.271 2.8752,0.796 0.8668,0.5281 1.5508,1.2532 2.0778,2.179 0.5193,0.9249 0.8042,2.0131 0.8572,3.253 z m -8.1082,3.992 c 0.0111,2.2062 0.3971,4.288 1.1492,6.219 0.7659,1.944 1.8669,3.6581 3.3069,5.1412 1.4439,1.4898 3.1731,2.6469 5.21,3.4968 2.0461,0.8441 4.345,1.2671 6.9018,1.29 1.5412,-0.013 2.9552,-0.1729 4.2461,-0.4858 1.2804,-0.309 2.429,-0.6962 3.4341,-1.16 1.0111,-0.4532 1.8661,-0.9181 2.5711,-1.3671 0.697,-0.4641 1.2268,-0.849 1.5939,-1.1611 l 0.5561,-0.4819 -3.2048,-5.3232 c -0.5193,0.4411 -1.0463,0.8422 -1.6152,1.2073 -0.5139,0.3447 -1.1271,0.69 -1.8451,1.0298 -0.7169,0.334 -1.5072,0.629 -2.391,0.849 -0.864,0.233 -1.804,0.349 -2.8009,0.362 -1.169,0 -2.2723,-0.18 -3.325,-0.527 -1.0492,-0.35 -1.984,-0.8719 -2.8202,-1.567 -0.8377,-0.712 -1.522,-1.5678 -2.056,-2.6058 -0.5437,-1.0251 -0.887,-2.2241 -1.0519,-3.585 l 21.2913,-3e-4 c 0,-0.01 0.01,-0.1108 0.0297,-0.3257 0.0202,-0.1981 0.036,-0.451 0.061,-0.752 0.0161,-0.3133 0.036,-0.6262 0.0581,-0.9392 0.0201,-0.312 0.0329,-0.593 0.0329,-0.8248 2e-4,-2.0571 -0.305,-3.9632 -0.8969,-5.7342 -0.599,-1.764 -1.4633,-3.3149 -2.6212,-4.6469 -1.1608,-1.33 -2.592,-2.37 -4.286,-3.113 -1.7056,-0.748 -3.6578,-1.1299 -5.866,-1.1449 -2.3148,0.015 -4.432,0.4048 -6.3479,1.192 -1.9148,0.7769 -3.5589,1.8878 -4.9479,3.331 -1.3918,1.4278 -2.4582,3.1288 -3.217,5.0938 -0.7521,1.978 -1.1381,4.1451 -1.1492,6.533 z"
           style="fill:#ffffff;fill-rule:evenodd;stroke-width:0.7733289"
           id="path76"
           inkscape:connector-curvature="0" />
        <path
           d="m 197.7216,467.5691 c -0.009,1.4429 0.3118,2.4889 0.959,3.1451 0.6559,0.6528 1.6857,0.9748 3.094,0.968 l 7.3179,-3e-4 v -6.4718 h -2.4191 c -0.4238,0 -0.754,-0.119 -0.9898,-0.3421 -0.218,-0.233 -0.341,-0.5649 -0.341,-0.9879 v -18.928 c 0.007,-1.4131 -0.313,-2.4591 -0.957,-3.121 -0.654,-0.6681 -1.6841,-1.002 -3.0972,-0.9901 h -7.3159 v 6.529 h 2.4211 c 0.4209,0 0.7548,0.1001 0.989,0.324 0.2188,0.2211 0.339,0.5531 0.339,1.006 z"
           style="fill:#ffffff;fill-rule:evenodd;stroke-width:0.7733289"
           id="path78"
           inkscape:connector-curvature="0" />
        <path
           d="m 399.9934,475.7941 -2.9616,5.4409 c 0,0.0209 0.1805,0.1822 0.5318,0.4952 0.3619,0.3138 0.877,0.6619 1.5528,1.0788 0.6741,0.4111 1.491,0.7631 2.459,1.0741 0.9573,0.3149 2.0469,0.4759 3.2551,0.4969 1.5412,0 3.024,-0.2829 4.4461,-0.8459 1.421,-0.576 2.7008,-1.449 3.8469,-2.6421 1.1503,-1.1889 2.0971,-2.7009 2.8329,-4.555 l 11.0673,-27.8788 c 0.1718,-0.4453 0.4037,-0.733 0.6758,-0.8852 0.2722,-0.152 0.6339,-0.2089 1.0789,-0.203 h 0.9062 v -6.529 h -5.199 c -1.0499,-0.0119 -1.9202,0.2092 -2.5841,0.6562 -0.661,0.4527 -1.1769,1.1979 -1.5321,2.2439 l -5.2608,15.4199 c -0.14,0.4031 -0.2631,0.8382 -0.392,1.309 -0.1188,0.468 -0.2291,0.9131 -0.324,1.3312 -0.1001,0.4399 -0.1681,0.7798 -0.2311,1.0508 -0.0498,0.2721 -0.0799,0.4141 -0.0799,0.4221 h -0.1182 c 0,-0.008 -0.034,-0.15 -0.0819,-0.4221 -0.0621,-0.271 -0.1389,-0.6109 -0.2299,-1.0508 -0.104,-0.4181 -0.2242,-0.8632 -0.356,-1.3312 -0.131,-0.4711 -0.2722,-0.9059 -0.4252,-1.309 l -6.0427,-15.4199 c -0.3741,-1.046 -0.8812,-1.7909 -1.5032,-2.2439 -0.6247,-0.4473 -1.4831,-0.6681 -2.5492,-0.6562 h -5.0796 v 6.529 h 0.9059 c 0.4158,-0.006 0.7458,0.051 1.0009,0.203 0.2469,0.1519 0.4609,0.4402 0.6338,0.8852 l 10.2802,23.1619 -1.0318,2.361 c -0.5551,1.33 -1.2671,2.3139 -2.1544,2.9611 -0.8767,0.6437 -1.8538,0.9689 -2.9239,0.9689 -0.6338,-0.0131 -1.2288,-0.1231 -1.7629,-0.334 -0.5357,-0.2131 -0.9969,-0.4529 -1.3941,-0.7251 -0.4028,-0.271 -0.7038,-0.515 -0.9229,-0.7239 z"
           style="fill:#ffffff;fill-rule:evenodd;stroke-width:0.7733289"
           id="path80"
           inkscape:connector-curvature="0" />
        <path
           d="m 215.3826,467.5691 c -0.0131,1.4429 0.309,2.4889 0.9677,3.1451 0.6511,0.6528 1.7011,0.9748 3.1431,0.968 l 7.2541,-3e-4 v -6.4718 h -2.3558 c -0.4241,0 -0.7583,-0.119 -0.9882,-0.3421 -0.2231,-0.233 -0.343,-0.5649 -0.343,-0.9879 v -31.0212 c 0.009,-1.4097 -0.324,-2.4619 -0.9882,-3.1238 -0.6627,-0.6681 -1.7129,-1.002 -3.1229,-0.9901 h -7.3219 v 6.529 h 2.4251 c 0.4178,0 0.7517,0.1052 0.9878,0.322 0.2231,0.2211 0.3422,0.5551 0.3422,1.008 z"
           style="fill:#ffffff;fill-rule:evenodd;stroke-width:0.7733289"
           id="path82"
           inkscape:connector-curvature="0" />
        <path
           d="m 238.8024,462.4279 c 0.009,-0.8549 0.239,-1.5738 0.6959,-2.1557 0.4411,-0.5743 1.0463,-1.0491 1.7921,-1.3992 0.7492,-0.3671 1.582,-0.6239 2.4891,-0.8189 0.9099,-0.1809 1.8261,-0.313 2.7519,-0.3759 0.9312,-0.0641 1.8031,-0.0972 2.6121,-0.087 l 1.3311,-3e-4 v 0.7262 c 0,0.9479 -0.1692,1.897 -0.5161,2.8511 -0.3422,0.9499 -0.8241,1.8119 -1.45,2.6138 -0.627,0.785 -1.3592,1.4202 -2.2169,1.899 -0.8561,0.4751 -1.8032,0.7271 -2.8341,0.7401 -1.046,-0.013 -1.9131,-0.203 -2.5991,-0.5771 -0.6968,-0.3691 -1.2078,-0.866 -1.554,-1.4709 -0.3299,-0.5911 -0.502,-1.249 -0.502,-1.9449 z m -7.742,0.364 c 0.0142,1.5412 0.3019,2.9112 0.8711,4.1032 0.5729,1.197 1.351,2.1951 2.3219,3.0109 0.9901,0.826 2.1101,1.442 3.3701,1.8661 1.2489,0.424 2.5719,0.6349 3.96,0.6349 1.3929,-0.0229 2.5999,-0.2018 3.6368,-0.5649 1.0381,-0.364 1.929,-0.817 2.6411,-1.3521 0.7291,-0.5298 1.3141,-1.0789 1.7671,-1.611 0.4419,-0.536 0.7679,-0.9879 0.9649,-1.3518 0.201,-0.3603 0.305,-0.555 0.305,-0.563 l 0.1191,-3e-4 c 0,0.008 -0.0119,0.1313 -0.0281,0.3702 -0.0229,0.2438 -0.0329,0.557 -0.0329,0.9621 0,0.6117 0.1299,1.1648 0.3949,1.6798 0.2602,0.514 0.6741,0.919 1.26,1.2311 0.572,0.3011 1.3272,0.4609 2.2731,0.4751 l 6.897,-3e-4 v -6.4718 h -2.416 c -0.4269,0 -0.7611,-0.119 -0.9819,-0.3421 -0.231,-0.233 -0.3492,-0.5649 -0.3492,-0.9879 l 2e-4,-11.493 c 0.006,-1.732 -0.204,-3.3441 -0.6352,-4.8229 -0.4368,-1.482 -1.15,-2.7851 -2.1589,-3.9022 -1.017,-1.1069 -2.3771,-1.978 -4.0921,-2.6019 -1.726,-0.6222 -3.8599,-0.9349 -6.421,-0.9499 -0.544,-3e-4 -1.188,0.0238 -1.9531,0.0768 -0.7588,0.0479 -1.5539,0.1471 -2.3989,0.2991 -0.8479,0.14 -1.6838,0.3631 -2.4999,0.648 -0.815,0.2928 -1.561,0.6641 -2.2371,1.1259 -0.667,0.4771 -1.1979,1.0491 -1.603,1.732 -0.4039,0.697 -0.6049,1.514 -0.614,2.4721 v 3.2629 h 7.1351 v -1.633 c 0.01,-0.4229 0.1619,-0.7628 0.4411,-1.0349 0.2928,-0.273 0.6568,-0.476 1.0919,-0.6291 0.4419,-0.1479 0.8869,-0.25 1.347,-0.3098 0.466,-0.0592 0.87,-0.0802 1.2319,-0.0802 1.3111,-0.01 2.3772,0.1942 3.2262,0.5851 0.8359,0.405 1.4629,1.04 1.8668,1.9369 0.398,0.8861 0.5931,2.0642 0.5931,3.5251 v 0.2399 h -0.9681 c -0.8569,-0.008 -1.8878,0.0331 -3.107,0.102 -1.2059,0.0811 -2.4999,0.2322 -3.877,0.464 -1.3748,0.2339 -2.7229,0.576 -4.0609,1.035 -1.336,0.468 -2.554,1.0822 -3.6419,1.8462 -1.097,0.7687 -1.9741,1.7348 -2.628,2.8859 -0.6551,1.1481 -0.989,2.528 -1.0112,4.1321 z"
           style="fill:#ffffff;fill-rule:evenodd;stroke-width:0.7733289"
           id="path84"
           inkscape:connector-curvature="0" />
        <path
           d="m 238.8024,462.4279 c 0.009,-0.8549 0.239,-1.5738 0.6959,-2.1557 0.4411,-0.5743 1.0463,-1.0491 1.7921,-1.3992 0.7492,-0.3671 1.582,-0.6239 2.4891,-0.8189 0.9099,-0.1809 1.8261,-0.313 2.7519,-0.3759 0.9312,-0.0641 1.8031,-0.0972 2.6121,-0.087 l 1.3311,-3e-4 v 0.7262 c 0,0.9479 -0.1692,1.897 -0.5161,2.8511 -0.3422,0.9499 -0.8241,1.8119 -1.45,2.6138 -0.627,0.785 -1.3592,1.4202 -2.2169,1.899 -0.8561,0.4751 -1.8032,0.7271 -2.8341,0.7401 -1.046,-0.013 -1.9131,-0.203 -2.5991,-0.5771 -0.6968,-0.3691 -1.2078,-0.866 -1.554,-1.4709 -0.3299,-0.5911 -0.502,-1.249 -0.502,-1.9449 z m -7.742,0.364 c 0.0142,1.5412 0.3019,2.9112 0.8711,4.1032 0.5729,1.197 1.351,2.1951 2.3219,3.0109 0.9901,0.826 2.1101,1.442 3.3701,1.8661 1.2489,0.424 2.5719,0.6349 3.96,0.6349 1.3929,-0.0229 2.5999,-0.2018 3.6368,-0.5649 1.0381,-0.364 1.929,-0.817 2.6411,-1.3521 0.7291,-0.5298 1.3141,-1.0789 1.7671,-1.611 0.4419,-0.536 0.7679,-0.9879 0.9649,-1.3518 0.201,-0.3603 0.305,-0.555 0.305,-0.563 l 0.1191,-3e-4 c 0,0.008 -0.0119,0.1313 -0.0281,0.3702 -0.0229,0.2438 -0.0329,0.557 -0.0329,0.9621 0,0.6117 0.1299,1.1648 0.3949,1.6798 0.2602,0.514 0.6741,0.919 1.26,1.2311 0.572,0.3011 1.3272,0.4609 2.2731,0.4751 l 6.897,-3e-4 v -6.4718 h -2.416 c -0.4269,0 -0.7611,-0.119 -0.9819,-0.3421 -0.231,-0.233 -0.3492,-0.5649 -0.3492,-0.9879 l 2e-4,-11.493 c 0.006,-1.732 -0.204,-3.3441 -0.6352,-4.8229 -0.4368,-1.482 -1.15,-2.7851 -2.1589,-3.9022 -1.017,-1.1069 -2.3771,-1.978 -4.0921,-2.6019 -1.726,-0.6222 -3.8599,-0.9349 -6.421,-0.9499 -0.544,-3e-4 -1.188,0.0238 -1.9531,0.0768 -0.7588,0.0479 -1.5539,0.1471 -2.3989,0.2991 -0.8479,0.14 -1.6838,0.3631 -2.4999,0.648 -0.815,0.2928 -1.561,0.6641 -2.2371,1.1259 -0.667,0.4771 -1.1979,1.0491 -1.603,1.732 -0.4039,0.697 -0.6049,1.514 -0.614,2.4721 v 3.2629 h 7.1351 v -1.633 c 0.01,-0.4229 0.1619,-0.7628 0.4411,-1.0349 0.2928,-0.273 0.6568,-0.476 1.0919,-0.6291 0.4419,-0.1479 0.8869,-0.25 1.347,-0.3098 0.466,-0.0592 0.87,-0.0802 1.2319,-0.0802 1.3111,-0.01 2.3772,0.1942 3.2262,0.5851 0.8359,0.405 1.4629,1.04 1.8668,1.9369 0.398,0.8861 0.5931,2.0642 0.5931,3.5251 v 0.2399 h -0.9681 c -0.8569,-0.008 -1.8878,0.0331 -3.107,0.102 -1.2059,0.0811 -2.4999,0.2322 -3.877,0.464 -1.3748,0.2339 -2.7229,0.576 -4.0609,1.035 -1.336,0.468 -2.554,1.0822 -3.6419,1.8462 -1.097,0.7687 -1.9741,1.7348 -2.628,2.8859 -0.6551,1.1481 -0.989,2.528 -1.0112,4.1321 z"
           style="fill:#ffffff;fill-rule:evenodd;stroke-width:0.7733289"
           id="path86"
           inkscape:connector-curvature="0" />
        <path
           d="m 274.4535,471.6819 h 8.3429 l 12.8222,-34.8959 c 0.167,-0.5009 0.402,-0.856 0.6818,-1.044 0.2931,-0.2021 0.6879,-0.2939 1.1911,-0.286 h 1.148 v -6.711 h -5.078 c -0.9961,-0.0119 -1.8051,0.093 -2.4309,0.301 -0.6259,0.2149 -1.137,0.5791 -1.5322,1.0922 -0.3909,0.5159 -0.7461,1.2189 -1.055,2.1178 l -8.2259,23.9439 c -0.2109,0.614 -0.4121,1.2912 -0.616,2.0072 -0.1879,0.7158 -0.3611,1.4009 -0.5142,2.0461 -0.1598,0.6409 -0.2829,1.1769 -0.3628,1.5908 -0.0899,0.4122 -0.14,0.635 -0.14,0.6452 l -0.1191,-3e-4 c 0,-0.01 -0.0519,-0.2327 -0.1321,-0.6449 -0.0907,-0.4139 -0.2148,-0.9499 -0.362,-1.5908 -0.1627,-0.6452 -0.3347,-1.33 -0.5269,-2.0461 -0.1899,-0.716 -0.404,-1.3929 -0.614,-2.0072 l -8.225,-23.9439 c -0.311,-0.8989 -0.663,-1.6019 -1.0769,-2.1178 -0.4,-0.5131 -0.9201,-0.877 -1.5539,-1.0922 -0.6342,-0.208 -1.4511,-0.3129 -2.4492,-0.301 h -5.0139 v 6.711 h 1.0879 c 0.5001,-0.008 0.8961,0.0842 1.1849,0.286 0.2832,0.188 0.5182,0.5431 0.6883,1.044 z"
           style="fill:#ffffff;fill-rule:evenodd;stroke-width:0.7733289"
           id="path88"
           inkscape:connector-curvature="0" />
        <path
           d="m 197.4115,435.8171 h 6.6529 v -7.0721 h -6.6529 z"
           style="fill:#ffffff;fill-rule:evenodd;stroke-width:0.7733289"
           id="path90"
           inkscape:connector-curvature="0" />
        <path
           d="m 66.488,471.6819 h 7.9228 V 435.456 h 6.59 c 0.4204,0 0.7597,0.1261 0.9902,0.345 0.2168,0.2341 0.341,0.5612 0.341,0.985 v 2.5991 h 6.9534 v -6.7711 c 0.01,-0.9471 -0.1097,-1.7008 -0.353,-2.2649 -0.2525,-0.5641 -0.6562,-0.9771 -1.2203,-1.2319 -0.5726,-0.2512 -1.3306,-0.3841 -2.2949,-0.3722 H 55.4836 c -0.9589,-0.0119 -1.726,0.121 -2.2989,0.3722 -0.5632,0.2548 -0.968,0.6678 -1.2107,1.2319 -0.25,0.5638 -0.3702,1.3181 -0.3628,2.2649 v 6.7711 h 6.9545 v -2.5991 c 0,-0.4238 0.1231,-0.7509 0.3408,-0.985 0.2352,-0.2189 0.566,-0.345 0.9898,-0.345 h 6.5917 z"
           style="fill:#ffffff;fill-rule:evenodd;stroke-width:0.7733289"
           id="path66"
           inkscape:connector-curvature="0" />
      </g>
      <g
         aria-label="Chetumal"
         transform="translate(-67.766323,4.7460048)"
         style="font-style:normal;font-variant:normal;font-weight:normal;font-stretch:normal;font-size:40px;line-height:1.25;font-family:'DejaVu Serif';-inkscape-font-specification:'DejaVu Serif';text-align:center;letter-spacing:0px;word-spacing:0px;text-anchor:middle;fill:#000000;fill-opacity:1;stroke:none;stroke-width:0.7733289"
         id="flowRoot4662">
        <path
           d="m 237.81836,525.42383 q -1.28906,4.08203 -4.33594,6.1914 -3.02734,2.08985 -7.67578,2.08985 -2.85156,0 -5.29297,-0.97656 -2.4414,-0.97657 -4.33594,-2.8711 -2.1875,-2.1875 -3.26171,-4.96094 -1.05469,-2.79296 -1.05469,-6.30859 0,-6.79687 3.92578,-10.95703 3.92578,-4.17969 10.35156,-4.17969 2.38281,0 5.07813,0.625 2.69531,0.625 5.80078,1.89453 v 6.71875 h -2.20703 q -0.72266,-3.67187 -2.91016,-5.41015 -2.16797,-1.73828 -6.09375,-1.73828 -4.66797,0 -7.07031,3.32031 -2.40235,3.30078 -2.40235,9.72656 0,6.40625 2.40235,9.72656 2.40234,3.30078 7.07031,3.30078 3.26172,0 5.37109,-1.54296 2.10938,-1.5625 3.04688,-4.64844 z"
           style="font-style:normal;font-variant:normal;font-weight:normal;font-stretch:normal;font-family:'DejaVu Serif';-inkscape-font-specification:'DejaVu Serif';fill:#ffffff;fill-opacity:1;stroke-width:0.7733289"
           id="path1285" />
        <path
           d="m 241.88086,533.13867 v -2.07031 h 3.24219 v -26.25 h -3.4375 v -2.07031 h 7.03125 v 13.32031 q 0.99609,-2.10938 2.57812,-3.18359 1.60156,-1.07422 3.71094,-1.07422 3.4375,0 5.05859,1.97265 1.6211,1.97266 1.6211,6.15235 v 11.13281 h 3.20312 v 2.07031 h -9.92187 v -2.07031 h 3.10547 v -10 q 0,-3.80859 -0.9375,-5.19531 -0.91797,-1.40625 -3.30079,-1.40625 -2.5,0 -3.80859,1.8164 -1.30859,1.81641 -1.30859,5.29297 v 9.49219 h 3.125 v 2.07031 z"
           style="font-style:normal;font-variant:normal;font-weight:normal;font-stretch:normal;font-family:'DejaVu Serif';-inkscape-font-specification:'DejaVu Serif';fill:#ffffff;fill-opacity:1;stroke-width:0.7733289"
           id="path1287" />
        <path
           d="m 287.70117,523.13867 h -15.48828 v 0.15625 q 0,4.19922 1.58203,6.34766 1.58203,2.1289 4.66797,2.1289 2.36328,0 3.86719,-1.23046 1.52344,-1.25 2.1289,-3.69141 h 2.89063 q -0.85938,3.41797 -3.18359,5.13672 -2.30469,1.71875 -6.07422,1.71875 -4.55078,0 -7.32422,-2.98828 -2.75391,-3.00782 -2.75391,-7.96875 0,-4.92188 2.71485,-7.92969 2.71484,-3.00781 7.1289,-3.00781 4.70703,0 7.22656,2.91015 2.51954,2.89063 2.61719,8.41797 z m -4.23828,-2.07031 q -0.11719,-3.63281 -1.54297,-5.46875 -1.40625,-1.85547 -4.0625,-1.85547 -2.48047,0 -3.90625,1.85547 -1.42578,1.85547 -1.73828,5.46875 z"
           style="font-style:normal;font-variant:normal;font-weight:normal;font-stretch:normal;font-family:'DejaVu Serif';-inkscape-font-specification:'DejaVu Serif';fill:#ffffff;fill-opacity:1;stroke-width:0.7733289"
           id="path1289" />
        <path
           d="m 294.00977,514.4668 h -3.16407 v -2.08985 h 3.16407 v -6.44531 h 3.61328 v 6.44531 h 6.75781 v 2.08985 h -6.75781 v 13.18359 q 0,2.63672 0.50781,3.37891 0.50781,0.74218 1.875,0.74218 1.40625,0 2.05078,-0.82031 0.64453,-0.83984 0.68359,-2.69531 h 2.71485 q -0.15625,2.83203 -1.54297,4.14062 -1.38672,1.3086 -4.21875,1.3086 -3.10547,0 -4.39453,-1.36719 -1.28906,-1.38672 -1.28906,-4.6875 z"
           style="font-style:normal;font-variant:normal;font-weight:normal;font-stretch:normal;font-family:'DejaVu Serif';-inkscape-font-specification:'DejaVu Serif';fill:#ffffff;fill-opacity:1;stroke-width:0.7733289"
           id="path1291" />
        <path
           d="m 319.94727,512.37695 h 6.71875 v 18.69141 h 3.39843 v 2.07031 h -6.99218 v -3.67187 q -0.9961,2.07031 -2.57813,3.16406 -1.58203,1.07422 -3.67187,1.07422 -3.45704,0 -5.09766,-1.95313 -1.62109,-1.97265 -1.62109,-6.17187 V 514.4668 h -3.24219 v -2.08985 h 6.85547 v 12.08985 q 0,3.78906 0.91797,5.19531 0.9375,1.40625 3.32031,1.40625 2.5,0 3.80859,-1.83594 1.3086,-1.83594 1.3086,-5.33203 v -9.43359 h -3.125 z"
           style="font-style:normal;font-variant:normal;font-weight:normal;font-stretch:normal;font-family:'DejaVu Serif';-inkscape-font-specification:'DejaVu Serif';fill:#ffffff;fill-opacity:1;stroke-width:0.7733289"
           id="path1293" />
        <path
           d="m 352.29102,516.41992 q 1.03515,-2.28515 2.63671,-3.4375 1.6211,-1.17187 3.76954,-1.17187 3.26171,0 4.86328,2.03125 1.60156,2.01172 1.60156,6.09375 v 11.13281 h 3.24219 v 2.07031 h -9.96094 v -2.07031 h 3.125 V 520.3457 q 0,-3.18359 -0.9375,-4.53125 -0.9375,-1.34765 -3.10547,-1.34765 -2.40234,0 -3.67187,1.8164 -1.25,1.81641 -1.25,5.29297 v 9.49219 h 3.125 v 2.07031 h -9.84375 v -2.07031 h 3.125 v -10.85938 q 0,-3.10546 -0.9375,-4.41406 -0.9375,-1.32812 -3.10547,-1.32812 -2.40235,0 -3.67188,1.8164 -1.25,1.81641 -1.25,5.29297 v 9.49219 h 3.125 v 2.07031 h -9.96094 v -2.07031 h 3.24219 v -16.64063 h -3.4375 v -2.05078 h 7.03125 v 3.69141 q 0.9961,-2.07031 2.53906,-3.16406 1.54297,-1.09375 3.4961,-1.09375 2.42187,0 4.04297,1.21093 1.62109,1.19141 2.16797,3.39844 z"
           style="font-style:normal;font-variant:normal;font-weight:normal;font-stretch:normal;font-family:'DejaVu Serif';-inkscape-font-specification:'DejaVu Serif';fill:#ffffff;fill-opacity:1;stroke-width:0.7733289"
           id="path1295" />
        <path
           d="m 385.45508,526.61523 v -4.39453 h -4.62891 q -2.67578,0 -3.98437,1.15235 -1.3086,1.15234 -1.3086,3.53515 0,2.16797 1.32813,3.4375 1.32812,1.26953 3.59375,1.26953 2.24609,0 3.61328,-1.38671 1.38672,-1.38672 1.38672,-3.61329 z m 3.59375,-6.44531 v 10.89844 h 3.20312 v 2.07031 h -6.79687 v -2.24609 q -1.19141,1.44531 -2.75391,2.1289 -1.5625,0.6836 -3.65234,0.6836 -3.45703,0 -5.48828,-1.83594 -2.03125,-1.83594 -2.03125,-4.96094 0,-3.22265 2.32422,-5 2.32421,-1.77734 6.5625,-1.77734 h 5.03906 v -1.42578 q 0,-2.36328 -1.44531,-3.65235 -1.42579,-1.30859 -4.02344,-1.30859 -2.14844,0 -3.41797,0.97656 -1.26953,0.97657 -1.58203,2.89063 h -1.85547 v -4.19922 q 1.875,-0.80078 3.63281,-1.19141 1.77735,-0.41015 3.45703,-0.41015 4.31641,0 6.5625,2.14843 2.26563,2.12891 2.26563,6.21094 z"
           style="font-style:normal;font-variant:normal;font-weight:normal;font-stretch:normal;font-family:'DejaVu Serif';-inkscape-font-specification:'DejaVu Serif';fill:#ffffff;fill-opacity:1;stroke-width:0.7733289"
           id="path1297" />
        <path
           d="m 401.56836,531.06836 h 3.39844 v 2.07031 h -10.44922 v -2.07031 h 3.45703 v -26.25 h -3.45703 v -2.07031 h 7.05078 z"
           style="font-style:normal;font-variant:normal;font-weight:normal;font-stretch:normal;font-family:'DejaVu Serif';-inkscape-font-specification:'DejaVu Serif';fill:#ffffff;fill-opacity:1;stroke-width:0.7733289"
           id="path1299" />
      </g>
    </g>
  </g>
</svg>
